<svg version="1.1" id="Layer_1" xmlns="http://www.w3.org/2000/svg" xmlns:xlink="http://www.w3.org/1999/xlink" x="0px" y="0px"
	 width="100%" viewBox="0 0 500 500" enable-background="new 0 0 500 500" xml:space="preserve">
<path fill="#000000" opacity="1.000000" stroke="none" 
	d="
M501.000000,165.000000 
	C501.000000,277.333313 501.000000,389.166595 501.000000,500.999939 
	C334.333405,500.999939 167.666794,500.999939 1.000149,500.999969 
	C1.000100,334.333435 1.000100,167.666885 1.000050,1.000239 
	C167.666519,1.000159 334.333038,1.000159 500.999786,1.000080 
	C501.000000,55.500000 501.000000,110.000000 501.000000,165.000000 
M442.181976,329.732697 
	C446.399811,331.048553 450.617676,332.364441 454.982208,334.629944 
	C452.731842,343.957520 450.774475,353.368744 448.141174,362.586914 
	C445.918335,370.368103 442.911407,377.925262 439.931763,386.251495 
	C439.688538,390.574188 442.991180,392.752777 446.861786,390.227051 
	C450.261139,388.008942 452.962341,384.730621 456.014282,381.967316 
	C458.601196,379.624969 461.248657,377.349518 463.936829,375.972778 
	C463.936829,388.025665 463.936829,400.078552 463.936829,412.131439 
	C464.583435,412.129242 465.230042,412.127045 465.876648,412.124847 
	C465.876648,395.332245 465.876648,378.539673 466.168549,361.112640 
	C471.949554,348.603943 476.654938,335.927887 476.113983,321.707581 
	C475.718445,311.310486 476.737488,312.028931 466.662292,308.839050 
	C466.063751,308.649536 465.565826,308.142303 465.024414,306.877441 
	C465.038971,239.927277 465.056763,172.977112 465.061798,106.026955 
	C465.062225,100.700371 464.974091,95.373795 464.934052,89.254372 
	C464.352386,86.790115 463.770691,84.325859 463.111969,81.048477 
	C461.344757,67.162697 453.144714,57.306713 442.769073,48.906395 
	C435.287476,42.849197 426.588806,39.707340 416.400055,38.382412 
	C414.917877,38.256821 413.435699,38.021519 411.953491,38.021278 
	C306.311096,38.004261 200.668594,37.945591 95.026344,38.070236 
	C78.896812,38.089268 65.018433,43.450062 54.075848,56.201515 
	C45.810402,65.833290 41.032162,76.349403 40.280746,89.482872 
	C40.181606,89.967720 39.995293,90.452644 39.995728,90.937408 
	C40.032642,131.948547 40.084023,172.959671 40.008591,214.905792 
	C40.010136,248.223267 40.011684,281.540741 39.225281,314.965118 
	C37.558083,315.778809 34.998165,316.230042 34.478580,317.509705 
	C33.974255,318.751770 35.316570,321.007294 36.308784,322.514374 
	C37.188885,323.851166 38.701733,324.771362 39.960232,326.626312 
	C39.997726,327.125305 40.035221,327.624298 40.057262,329.037354 
	C40.057262,357.099884 40.057262,385.162415 40.057262,413.224915 
	C40.389076,413.225067 40.720890,413.225189 41.052704,413.225311 
	C41.052704,386.494781 41.052704,359.764221 41.778713,332.999420 
	C42.933025,333.568085 44.184536,333.997681 45.226944,334.726410 
	C58.949734,344.319794 72.053696,354.976318 86.497459,363.314087 
	C103.403610,373.073364 121.000740,382.031952 139.172256,389.086151 
	C155.778290,395.532654 173.390244,399.715118 190.860916,403.501953 
	C204.402405,406.437164 218.386780,408.417755 232.215546,408.684601 
	C253.118546,409.087891 274.101013,408.237244 294.964844,406.738403 
	C307.626434,405.828796 320.350983,403.548767 332.645142,400.342590 
	C347.873505,396.371155 362.843048,391.233734 377.638885,385.819702 
	C397.541229,378.537140 416.068146,368.469330 433.156708,355.861694 
	C434.485260,354.881531 436.033051,353.848877 436.715027,352.464355 
	C437.171600,351.537384 436.276184,349.944489 436.359833,347.887909 
	C437.985626,343.025238 436.111633,338.933624 431.769562,338.593628 
	C429.571106,338.421448 427.179871,338.873779 425.081207,339.620819 
	C419.575012,341.580963 414.181641,343.857941 408.902405,345.161591 
	C415.084808,336.861481 423.055878,331.749115 433.599976,330.926025 
	C435.439636,330.782440 437.203522,329.668304 439.750793,329.002075 
	C440.499146,329.003418 441.247528,329.004761 442.181976,329.732697 
M375.500000,461.000000 
	C279.387085,461.000000 183.274200,461.000000 87.161293,461.000000 
	C87.161560,461.250061 87.161827,461.500122 87.162094,461.750183 
	C196.714066,461.750183 306.266052,461.750183 415.818024,461.750183 
	C415.820251,461.500122 415.822449,461.250061 415.824677,461.000000 
	C402.716461,461.000000 389.608215,461.000000 375.500000,461.000000 
z"/>
<path fill="#F59B2F" opacity="1.000000" stroke="none" 
	d="
M39.935272,325.875458 
	C38.701733,324.771362 37.188885,323.851166 36.308784,322.514374 
	C35.316570,321.007294 33.974255,318.751770 34.478580,317.509705 
	C34.998165,316.230042 37.558083,315.778809 39.817776,315.006195 
	C40.410271,315.047272 40.849648,315.009460 41.097332,315.261780 
	C58.514671,325.519440 76.179924,334.487976 95.206772,341.384644 
	C101.517380,343.917999 107.460983,346.590179 113.654305,348.414673 
	C128.016403,352.645660 142.499191,356.467010 157.249069,360.658325 
	C189.901901,368.553528 222.705994,372.583771 255.926407,372.870117 
	C297.120850,373.225159 337.645264,368.118439 377.249634,356.608826 
	C387.876831,353.520416 398.252258,349.565674 408.743286,346.008636 
	C414.181641,343.857941 419.575012,341.580963 425.081207,339.620819 
	C427.179871,338.873779 429.571106,338.421448 431.769562,338.593628 
	C436.111633,338.933624 437.985626,343.025238 435.885620,348.361938 
	C423.399475,356.261169 411.907379,364.747650 399.286560,370.929718 
	C341.440247,399.264496 280.225647,409.098846 216.289078,402.163116 
	C154.960724,395.510345 100.311874,372.519470 51.874947,334.471649 
	C48.021778,331.444916 43.920990,328.733429 39.935272,325.875458 
z"/>
<path fill="#040507" opacity="1.000000" stroke="none" 
	d="
M408.822845,345.585114 
	C398.252258,349.565674 387.876831,353.520416 377.249634,356.608826 
	C337.645264,368.118439 297.120850,373.225159 255.926407,372.870117 
	C222.705994,372.583771 189.901901,368.553528 157.290207,360.297668 
	C157.676880,358.822144 158.338440,357.911072 159.355270,357.157410 
	C166.203491,358.529266 172.686768,359.798859 179.192200,360.942322 
	C185.378082,362.029602 191.618820,364.020233 197.780884,363.831604 
	C239.755936,362.546478 281.813446,367.008698 323.754120,361.223846 
	C341.388702,358.791473 358.108856,354.763062 373.688873,345.989990 
	C381.019501,341.862152 388.886108,338.692566 396.446594,334.960663 
	C397.790955,334.297058 398.824890,333.004547 400.349121,331.848816 
	C402.797943,331.106201 404.899872,330.517181 407.322784,329.934509 
	C408.071808,329.944000 408.499786,329.947052 409.301697,329.967346 
	C410.789276,329.638367 411.903015,329.292145 413.455750,328.947144 
	C416.234253,328.944397 418.573700,328.940460 421.379974,328.958344 
	C423.636719,328.986420 425.474640,329.251465 427.203949,328.930817 
	C429.187164,328.563049 431.074036,327.675873 433.401825,327.007996 
	C434.864624,327.009796 435.928406,327.017914 437.045837,327.337891 
	C437.733795,328.100677 438.368103,328.551575 439.002441,329.002441 
	C437.203522,329.668304 435.439636,330.782440 433.599976,330.926025 
	C423.055878,331.749115 415.084808,336.861481 408.822845,345.585114 
z"/>
<path fill="#201D1A" opacity="1.000000" stroke="none" 
	d="
M39.947754,326.250885 
	C43.920990,328.733429 48.021778,331.444916 51.874947,334.471649 
	C100.311874,372.519470 154.960724,395.510345 216.289078,402.163116 
	C280.225647,409.098846 341.440247,399.264496 399.286560,370.929718 
	C411.907379,364.747650 423.399475,356.261169 435.698578,348.742798 
	C436.276184,349.944489 437.171600,351.537384 436.715027,352.464355 
	C436.033051,353.848877 434.485260,354.881531 433.156708,355.861694 
	C416.068146,368.469330 397.541229,378.537140 377.638885,385.819702 
	C362.843048,391.233734 347.873505,396.371155 332.645142,400.342590 
	C320.350983,403.548767 307.626434,405.828796 294.964844,406.738403 
	C274.101013,408.237244 253.118546,409.087891 232.215546,408.684601 
	C218.386780,408.417755 204.402405,406.437164 190.860916,403.501953 
	C173.390244,399.715118 155.778290,395.532654 139.172256,389.086151 
	C121.000740,382.031952 103.403610,373.073364 86.497459,363.314087 
	C72.053696,354.976318 58.949734,344.319794 45.226944,334.726410 
	C44.184536,333.997681 42.933025,333.568085 41.373886,332.638367 
	C40.670280,330.892639 40.371502,329.507965 40.072716,328.123291 
	C40.035221,327.624298 39.997726,327.125305 39.947754,326.250885 
z"/>
<path fill="#FB9F31" opacity="1.000000" stroke="none" 
	d="
M465.021057,307.782898 
	C465.565826,308.142303 466.063751,308.649536 466.662292,308.839050 
	C476.737488,312.028931 475.718445,311.310486 476.113983,321.707581 
	C476.654938,335.927887 471.949554,348.603943 465.835541,361.523376 
	C465.502533,361.934082 465.131805,362.124695 464.830353,361.988464 
	C463.507874,362.268097 462.104614,362.393066 461.529907,363.148468 
	C458.526367,367.096405 455.819397,371.270020 452.814850,375.217133 
	C451.897552,376.422180 450.362915,377.157349 449.111023,378.107697 
	C448.771454,377.815552 448.431915,377.523438 448.092346,377.231293 
	C448.437836,376.049164 448.761353,374.860138 449.132324,373.686035 
	C452.569977,362.805878 456.098999,351.953735 459.436157,341.042908 
	C462.909607,329.686493 454.825256,322.478973 447.002747,321.161072 
	C432.675629,318.747253 418.308807,320.014008 403.955231,321.677155 
	C401.079437,322.010376 398.008575,320.660065 395.194153,319.791626 
	C396.140686,319.062592 396.920685,318.627869 397.874939,318.544128 
	C399.386993,318.914764 400.992950,319.432953 402.022156,318.879150 
	C416.873383,310.888092 432.813934,308.354584 449.457733,308.890930 
	C450.958801,308.939301 452.499054,307.772369 454.433167,307.110321 
	C457.876801,307.220398 460.908356,307.390015 464.202118,307.654419 
	C464.649933,307.760437 464.835480,307.771667 465.021057,307.782898 
z"/>
<path fill="#2A2B2D" opacity="1.000000" stroke="none" 
	d="
M40.996922,89.013832 
	C41.032162,76.349403 45.810402,65.833290 54.075848,56.201515 
	C65.018433,43.450062 78.896812,38.089268 95.026344,38.070236 
	C200.668594,37.945591 306.311096,38.004261 411.953491,38.021278 
	C413.435699,38.021519 414.917877,38.256821 416.701111,38.999413 
	C416.999969,40.059521 416.997803,40.502628 416.562317,40.960289 
	C388.071808,40.683437 360.014648,40.392036 331.491821,40.084106 
	C252.720444,40.047386 174.414551,39.963612 96.109230,40.135235 
	C90.239693,40.148106 84.142433,41.276592 78.548981,43.104328 
	C59.613842,49.291641 48.008221,62.347641 43.985146,82.376381 
	C42.940689,84.935448 41.932053,87.106987 40.919121,89.206055 
	C40.914818,89.133583 40.996922,89.013832 40.996922,89.013832 
z"/>
<path fill="#DE8D2D" opacity="1.000000" stroke="none" 
	d="
M395.027649,320.085968 
	C398.008575,320.660065 401.079437,322.010376 403.955231,321.677155 
	C418.308807,320.014008 432.675629,318.747253 447.002747,321.161072 
	C454.825256,322.478973 462.909607,329.686493 459.436157,341.042908 
	C456.098999,351.953735 452.569977,362.805878 449.132324,373.686035 
	C448.761353,374.860138 448.437836,376.049164 448.092346,377.231293 
	C448.431915,377.523438 448.771454,377.815552 449.111023,378.107697 
	C450.362915,377.157349 451.897552,376.422180 452.814850,375.217133 
	C455.819397,371.270020 458.526367,367.096405 461.529907,363.148468 
	C462.104614,362.393066 463.507874,362.268097 464.802551,362.287415 
	C464.728699,363.433319 464.381165,364.144104 463.769897,365.075653 
	C458.137604,371.766266 452.979309,378.433533 447.236298,384.551941 
	C445.974579,385.896210 442.634491,385.289734 440.251526,385.581573 
	C442.911407,377.925262 445.918335,370.368103 448.141174,362.586914 
	C450.774475,353.368744 452.731842,343.957520 454.983826,333.892395 
	C454.947357,332.793488 454.909241,332.432129 454.946442,331.764282 
	C454.396301,330.110321 453.770813,328.762878 452.989471,327.119690 
	C447.224243,325.584656 441.600433,323.248627 436.008331,323.322144 
	C422.055878,323.505615 408.117828,324.784302 394.029327,325.339874 
	C394.265656,323.399536 394.646667,321.742767 395.027649,320.085968 
z"/>
<path fill="#0E0E0F" opacity="1.000000" stroke="none" 
	d="
M376.000000,461.000000 
	C389.608215,461.000000 402.716461,461.000000 415.824677,461.000000 
	C415.822449,461.250061 415.820251,461.500122 415.818024,461.750183 
	C306.266052,461.750183 196.714066,461.750183 87.162094,461.750183 
	C87.161827,461.500122 87.161560,461.250061 87.161293,461.000000 
	C183.274200,461.000000 279.387085,461.000000 376.000000,461.000000 
z"/>
<path fill="#535559" opacity="1.000000" stroke="none" 
	d="
M465.022736,307.330170 
	C464.835480,307.771667 464.649933,307.760437 464.196045,307.217041 
	C463.886505,294.795288 463.845337,282.905762 463.868134,270.550781 
	C463.888153,264.724396 463.844208,259.363403 463.856384,253.588730 
	C463.877838,251.786316 463.843231,250.397598 463.867218,248.561157 
	C463.887756,245.410858 463.849670,242.708252 463.864441,239.582474 
	C463.721619,235.747650 463.525940,232.335983 463.377594,228.552490 
	C463.056793,224.101242 462.688660,220.021835 462.354919,215.714279 
	C462.419098,215.180267 462.406464,214.876190 462.728149,214.383423 
	C463.340698,208.805298 463.576630,203.417618 463.863586,197.562088 
	C463.878937,184.414993 463.843262,171.735779 463.863281,158.585236 
	C463.938599,135.408340 463.958221,112.702766 464.215759,89.998528 
	C464.453674,89.999863 464.927094,90.047211 464.927094,90.047211 
	C464.974091,95.373795 465.062225,100.700371 465.061798,106.026955 
	C465.056763,172.977112 465.038971,239.927277 465.022736,307.330170 
z"/>
<path fill="#535559" opacity="1.000000" stroke="none" 
	d="
M40.134373,213.970795 
	C40.084023,172.959671 40.032642,131.948547 39.995728,90.937408 
	C39.995293,90.452644 40.181606,89.967720 40.638832,89.248352 
	C40.996922,89.013832 40.914818,89.133583 40.936386,89.576912 
	C40.977844,91.027191 40.997730,92.034149 41.028446,93.505287 
	C41.031094,104.756516 40.939472,115.544838 41.104076,126.329239 
	C41.128960,127.959328 42.347137,129.571198 42.982712,131.646912 
	C42.970333,138.286423 42.988594,144.470505 42.597622,150.793488 
	C41.788891,152.413879 41.083286,153.887421 41.044502,155.378296 
	C40.900127,160.928635 40.974812,166.484680 40.949165,172.502716 
	C40.927361,177.960556 40.923656,182.954239 40.915401,188.381256 
	C41.595989,197.033127 42.281128,205.251709 42.607666,213.511902 
	C41.790031,213.686951 41.330990,213.820374 40.687660,213.962616 
	C40.503368,213.971436 40.134373,213.970795 40.134373,213.970795 
z"/>
<path fill="#303336" opacity="1.000000" stroke="none" 
	d="
M416.995605,40.945740 
	C416.997803,40.502628 416.999969,40.059521 417.007538,39.283455 
	C426.588806,39.707340 435.287476,42.849197 442.769073,48.906395 
	C453.144714,57.306713 461.344757,67.162697 463.101196,81.490143 
	C463.090454,81.931816 462.998779,82.001617 462.732300,81.999481 
	C462.288177,81.997414 462.110504,81.997482 461.683105,81.783829 
	C460.628784,80.048561 459.824219,78.527023 459.005096,76.627754 
	C457.089600,72.086388 455.508545,67.737556 453.226044,63.794769 
	C447.063171,53.148884 437.533875,46.713451 425.590118,42.998901 
	C422.459106,42.302021 419.727356,41.623882 416.995605,40.945740 
z"/>
<path fill="#151617" opacity="1.000000" stroke="none" 
	d="
M440.091644,385.916534 
	C442.634491,385.289734 445.974579,385.896210 447.236298,384.551941 
	C452.979309,378.433533 458.137604,371.766266 463.761108,365.544495 
	C463.967163,368.876587 463.918274,371.960541 463.869385,375.044495 
	C461.248657,377.349518 458.601196,379.624969 456.014282,381.967316 
	C452.962341,384.730621 450.261139,388.008942 446.861786,390.227051 
	C442.991180,392.752777 439.688538,390.574188 440.091644,385.916534 
z"/>
<path fill="#46484B" opacity="1.000000" stroke="none" 
	d="
M40.071480,214.438293 
	C40.134373,213.970795 40.503368,213.971436 40.743248,214.432556 
	C41.039570,228.287918 41.096012,241.682129 41.116081,255.538788 
	C41.003021,275.670624 40.926334,295.340057 40.849648,315.009460 
	C40.849648,315.009460 40.410271,315.047272 40.211754,314.952759 
	C40.011684,281.540741 40.010136,248.223267 40.071480,214.438293 
z"/>
<path fill="#46484B" opacity="1.000000" stroke="none" 
	d="
M40.064991,328.580322 
	C40.371502,329.507965 40.670280,330.892639 41.010883,332.655518 
	C41.052704,359.764221 41.052704,386.494781 41.052704,413.225311 
	C40.720890,413.225189 40.389076,413.225067 40.057262,413.224915 
	C40.057262,385.162415 40.057262,357.099884 40.064991,328.580322 
z"/>
<path fill="#535559" opacity="1.000000" stroke="none" 
	d="
M463.903107,375.508667 
	C463.918274,371.960541 463.967163,368.876587 464.024841,365.323730 
	C464.381165,364.144104 464.728699,363.433319 465.104004,362.423615 
	C465.131805,362.124695 465.502533,361.934082 465.689575,361.840576 
	C465.876648,378.539673 465.876648,395.332245 465.876648,412.124847 
	C465.230042,412.127045 464.583435,412.129242 463.936829,412.131439 
	C463.936829,400.078552 463.936829,388.025665 463.903107,375.508667 
z"/>
<path fill="#040507" opacity="1.000000" stroke="none" 
	d="
M454.871094,332.070801 
	C454.909241,332.432129 454.947357,332.793488 454.910492,333.417572 
	C450.617676,332.364441 446.399811,331.048553 442.367371,329.346741 
	C442.738220,328.943390 442.923615,328.925995 443.471405,328.919128 
	C446.220886,328.959991 448.607971,328.990356 451.059937,329.405518 
	C452.373627,330.550446 453.622375,331.310608 454.871094,332.070801 
z"/>
<path fill="#303336" opacity="1.000000" stroke="none" 
	d="
M464.930573,89.650787 
	C464.927094,90.047211 464.453674,89.999863 463.887878,89.998291 
	C462.884552,90.002777 462.447052,90.008827 462.005249,89.677017 
	C462.002167,88.889023 462.003387,88.438896 462.272705,87.715950 
	C462.693451,85.629295 462.846130,83.815453 462.998779,82.001617 
	C462.998779,82.001617 463.090454,81.931816 463.139709,81.896713 
	C463.770691,84.325859 464.352386,86.790115 464.930573,89.650787 
z"/>
<path fill="#0C0C0C" opacity="1.000000" stroke="none" 
	d="
M443.108978,328.908630 
	C442.923615,328.925995 442.738220,328.943390 442.274353,328.983429 
	C441.247528,329.004761 440.499146,329.003418 439.376617,329.002258 
	C438.368103,328.551575 437.733795,328.100677 437.453857,327.323914 
	C439.575165,327.634918 441.342072,328.271790 443.108978,328.908630 
z"/>
<path fill="#07080B" opacity="1.000000" stroke="none" 
	d="
M159.000000,357.000000 
	C158.338440,357.911072 157.676880,358.822144 156.974182,360.093811 
	C142.499191,356.467010 128.016403,352.645660 113.654305,348.414673 
	C107.460983,346.590179 101.517380,343.917999 95.209381,341.010254 
	C94.082893,339.312622 93.394096,337.965363 92.297813,337.207947 
	C88.573921,334.635071 84.266068,332.748352 80.984970,329.726807 
	C74.194664,323.473633 67.864601,316.713684 61.455856,310.055695 
	C57.341446,305.781281 54.005955,300.481232 49.254303,297.173950 
	C44.547935,293.898132 42.065720,290.631317 43.428162,284.999207 
	C48.019081,284.333649 51.219662,285.982971 53.931435,289.037140 
	C60.681087,296.639038 67.275475,304.396637 74.359512,311.675873 
	C77.624863,315.031219 82.052460,317.222229 85.661919,320.284332 
	C90.320724,324.236725 94.595467,328.638794 99.201073,332.657562 
	C107.261589,339.690979 116.065475,345.385284 126.656845,348.040771 
	C130.128372,348.911194 133.318527,350.863373 136.685516,352.199463 
	C143.872742,355.051605 150.850220,359.756836 159.000000,355.333313 
	C159.000000,356.111115 159.000000,356.555542 159.000000,357.000000 
z"/>
<path fill="#040507" opacity="1.000000" stroke="none" 
	d="
M43.003052,284.998779 
	C42.065720,290.631317 44.547935,293.898132 49.254303,297.173950 
	C54.005955,300.481232 57.341446,305.781281 61.455856,310.055695 
	C67.864601,316.713684 74.194664,323.473633 80.984970,329.726807 
	C84.266068,332.748352 88.573921,334.635071 92.297813,337.207947 
	C93.394096,337.965363 94.082893,339.312622 94.955826,340.763977 
	C76.179924,334.487976 58.514671,325.519440 41.097328,315.261780 
	C40.926334,295.340057 41.003021,275.670624 41.303192,255.649017 
	C41.754257,255.489883 41.921680,255.725677 42.183880,256.369659 
	C42.562119,259.156097 42.785423,261.577057 43.004925,264.414673 
	C43.003922,266.220062 43.006718,267.608795 43.005581,269.426086 
	C43.003960,271.568939 43.006275,273.283264 43.005669,275.372528 
	C43.003220,276.497223 43.003689,277.246948 43.002716,278.434387 
	C43.001865,280.914307 43.002457,282.956543 43.003052,284.998779 
z"/>
<path fill="#0C0C0C" opacity="1.000000" stroke="none" 
	d="
M463.808594,249.008865 
	C463.843231,250.397598 463.877838,251.786316 463.492126,253.585876 
	C461.071899,252.557968 459.072052,251.119247 456.459045,249.239441 
	C455.712280,250.336868 454.807892,251.738495 453.831848,253.088348 
	C448.533600,260.415558 443.541656,267.996948 437.802490,274.962006 
	C433.432220,280.265747 428.046448,284.723724 423.219025,289.662079 
	C416.789093,296.239716 410.387512,302.848938 404.136292,309.595245 
	C402.207672,311.676636 400.810211,314.250183 399.046722,316.782349 
	C398.516144,317.375244 398.108429,317.784180 397.700684,318.193146 
	C396.920685,318.627869 396.140686,319.062592 395.194153,319.791626 
	C394.646667,321.742767 394.265656,323.399536 393.993713,325.758667 
	C394.259796,330.894012 397.403839,329.848267 400.093109,329.791016 
	C402.393982,329.742004 404.698730,329.875427 407.001770,329.928162 
	C404.899872,330.517181 402.797943,331.106201 399.927277,331.848022 
	C395.760681,330.702057 392.379913,329.355438 388.953949,328.135712 
	C388.010681,327.799835 386.730988,327.419220 385.953430,327.789490 
	C383.414368,328.998627 380.964478,330.436096 378.608215,331.980835 
	C369.740265,337.794708 360.349548,342.425690 350.000824,344.958984 
	C348.880707,345.233154 347.619720,345.224182 346.644318,345.752869 
	C334.409576,352.383911 320.552002,353.284760 307.507660,353.566895 
	C268.121216,354.418793 228.689285,353.522247 189.283707,352.822479 
	C181.835419,352.690216 174.426727,350.329834 167.146545,348.711304 
	C168.528732,346.949646 169.764114,345.474213 171.337082,343.960205 
	C173.115234,343.280212 174.555817,342.638794 176.406433,341.985352 
	C180.064392,341.953247 183.336304,341.674194 186.554688,341.972595 
	C191.653763,342.445343 196.713913,343.879486 201.795929,343.906860 
	C235.252380,344.087372 268.710297,344.012604 302.167664,343.970337 
	C304.302124,343.967651 306.469177,343.702881 308.564087,343.278656 
	C315.210419,341.932739 321.791718,339.498047 328.467743,339.232208 
	C340.898376,338.737244 351.902283,334.278900 362.734589,329.027191 
	C367.569244,326.683258 372.117828,323.719330 376.681976,320.854736 
	C382.617859,317.129120 388.542664,313.368469 394.275238,309.342346 
	C398.130707,306.634552 401.989594,303.772369 405.238403,300.394043 
	C411.554840,293.825684 416.901154,286.241486 423.646942,280.190125 
	C431.981476,272.713593 439.641602,264.828094 445.977051,255.612366 
	C449.208649,250.911575 452.653076,246.357101 455.947021,241.811371 
	C459.957153,243.522629 458.223938,250.124695 463.808594,249.008865 
z"/>
<path fill="#0A0909" opacity="1.000000" stroke="none" 
	d="
M166.999756,348.997559 
	C174.426727,350.329834 181.835419,352.690216 189.283707,352.822479 
	C228.689285,353.522247 268.121216,354.418793 307.507660,353.566895 
	C320.552002,353.284760 334.409576,352.383911 346.644318,345.752869 
	C347.619720,345.224182 348.880707,345.233154 350.000824,344.958984 
	C360.349548,342.425690 369.740265,337.794708 378.608215,331.980835 
	C380.964478,330.436096 383.414368,328.998627 385.953430,327.789490 
	C386.730988,327.419220 388.010681,327.799835 388.953949,328.135712 
	C392.379913,329.355438 395.760681,330.702057 399.580322,332.001617 
	C398.824890,333.004547 397.790955,334.297058 396.446594,334.960663 
	C388.886108,338.692566 381.019501,341.862152 373.688873,345.989990 
	C358.108856,354.763062 341.388702,358.791473 323.754120,361.223846 
	C281.813446,367.008698 239.755936,362.546478 197.780884,363.831604 
	C191.618820,364.020233 185.378082,362.029602 179.192200,360.942322 
	C172.686768,359.798859 166.203491,358.529266 159.355255,357.157410 
	C159.000000,356.555542 159.000000,356.111115 159.112625,355.077209 
	C159.483902,353.992249 159.742569,353.496735 160.300034,352.865479 
	C162.066299,351.487335 163.533783,350.244873 165.334335,349.001801 
	C166.111526,348.999939 166.555649,348.998749 166.999756,348.997559 
z"/>
<path fill="#222324" opacity="1.000000" stroke="none" 
	d="
M407.322784,329.934570 
	C404.698730,329.875427 402.393982,329.742004 400.093109,329.791016 
	C397.403839,329.848267 394.259796,330.894012 394.138367,326.042175 
	C408.117828,324.784302 422.055878,323.505615 436.008331,323.322144 
	C441.600433,323.248627 447.224243,325.584656 452.838135,327.445923 
	C452.226776,328.385498 451.610901,328.703125 450.995026,329.020752 
	C448.607971,328.990356 446.220886,328.959991 443.471405,328.919128 
	C441.342072,328.271790 439.575165,327.634918 437.400208,327.012024 
	C435.928406,327.017914 434.864624,327.009796 432.943176,326.996246 
	C430.303650,326.990387 428.475769,326.738800 426.752167,327.055267 
	C424.757935,327.421387 422.855469,328.287476 420.913177,328.936523 
	C418.573700,328.940460 416.234253,328.944397 413.215027,328.707825 
	C411.332825,328.961578 410.130310,329.455841 408.927795,329.950104 
	C408.499786,329.947052 408.071808,329.944000 407.322784,329.934570 
z"/>
<path fill="#0C0C0C" opacity="1.000000" stroke="none" 
	d="
M421.379974,328.958344 
	C422.855469,328.287476 424.757935,327.421387 426.752167,327.055267 
	C428.475769,326.738800 430.303650,326.990387 432.544128,327.002625 
	C431.074036,327.675873 429.187164,328.563049 427.203949,328.930817 
	C425.474640,329.251465 423.636719,328.986420 421.379974,328.958344 
z"/>
<path fill="#0C0C0C" opacity="1.000000" stroke="none" 
	d="
M409.301697,329.967346 
	C410.130310,329.455841 411.332825,328.961578 412.776001,328.706604 
	C411.903015,329.292145 410.789276,329.638367 409.301697,329.967346 
z"/>
<path fill="#040507" opacity="1.000000" stroke="none" 
	d="
M463.804169,271.016205 
	C463.845337,282.905762 463.886505,294.795288 463.933777,307.122223 
	C460.908356,307.390015 457.876801,307.220398 454.028687,306.964966 
	C442.474030,307.264374 431.735931,307.649658 421.047546,307.677032 
	C424.544312,304.251648 427.661560,300.665436 431.505219,298.221741 
	C440.244263,292.665771 444.699768,283.548584 450.898407,275.917084 
	C454.196716,271.856293 456.557983,267.219574 462.816498,270.979340 
	C463.063812,271.127899 463.471313,271.009979 463.804169,271.016205 
z"/>
<path fill="#DE8D2D" opacity="1.000000" stroke="none" 
	d="
M420.997833,308.034943 
	C431.735931,307.649658 442.474030,307.264374 453.616608,307.024475 
	C452.499054,307.772369 450.958801,308.939301 449.457733,308.890930 
	C432.813934,308.354584 416.873383,310.888092 402.022156,318.879150 
	C400.992950,319.432953 399.386993,318.914764 397.874939,318.544128 
	C398.108429,317.784180 398.516144,317.375244 399.408020,316.674744 
	C406.927368,313.600433 413.962585,310.817688 420.997833,308.034943 
z"/>
<path fill="#535559" opacity="1.000000" stroke="none" 
	d="
M44.020973,81.988853 
	C48.008221,62.347641 59.613842,49.291641 78.548981,43.104328 
	C84.142433,41.276592 90.239693,40.148106 96.109230,40.135235 
	C174.414551,39.963612 252.720444,40.047386 331.547424,40.412720 
	C332.371338,41.830345 332.673950,42.902828 332.510315,43.978012 
	C321.696899,43.991173 311.349762,44.001633 300.533783,44.003620 
	C275.710510,44.004017 251.356094,44.012886 226.532959,44.014755 
	C182.825516,44.007671 139.586685,44.061581 96.348068,43.986820 
	C71.294510,43.943504 55.077492,58.609234 47.016182,80.339363 
	C47.009712,81.119362 47.008423,81.565178 46.633625,82.010178 
	C45.513737,82.002525 44.767353,81.995689 44.020973,81.988853 
z"/>
<path fill="#46484B" opacity="1.000000" stroke="none" 
	d="
M332.976593,43.975311 
	C332.673950,42.902828 332.371338,41.830345 332.013062,40.429249 
	C360.014648,40.392036 388.071808,40.683437 416.562317,40.960293 
	C419.727356,41.623882 422.459106,42.302021 425.540344,43.312595 
	C425.255127,44.102680 424.620453,44.560337 423.547852,45.013607 
	C400.743713,44.681198 378.377411,44.353168 355.541870,44.018219 
	C347.707275,43.999302 340.341919,43.987309 332.976593,43.975311 
z"/>
<path fill="#46484B" opacity="1.000000" stroke="none" 
	d="
M43.985146,82.376381 
	C44.767353,81.995689 45.513737,82.002525 46.633682,82.453720 
	C46.684509,89.270195 46.361767,95.642296 46.030487,102.477661 
	C46.027836,107.296394 46.033730,111.651871 46.029949,116.435089 
	C46.015724,118.576225 46.011173,120.289604 45.630432,122.002769 
	C44.501877,122.001801 43.749508,122.001053 42.981655,121.531868 
	C42.956860,116.902306 43.187241,112.723236 42.877682,108.584564 
	C42.488861,103.386116 41.657822,98.220741 41.017616,93.041100 
	C40.997730,92.034149 40.977844,91.027191 40.940689,89.649384 
	C41.932053,87.106987 42.940689,84.935448 43.985146,82.376381 
z"/>
<path fill="#0C0C0C" opacity="1.000000" stroke="none" 
	d="
M451.059937,329.405518 
	C451.610901,328.703125 452.226776,328.385498 452.993958,327.741669 
	C453.770813,328.762878 454.396301,330.110321 454.946442,331.764252 
	C453.622375,331.310608 452.373627,330.550446 451.059937,329.405518 
z"/>
<path fill="#101111" opacity="1.000000" stroke="none" 
	d="
M463.330261,228.924332 
	C463.525940,232.335983 463.721619,235.747650 463.483124,239.577087 
	C461.943298,238.877106 460.504303,237.933365 459.809052,236.601410 
	C458.726349,234.527130 458.148743,232.189224 457.357117,229.963028 
	C456.831055,229.761063 456.305023,229.559097 455.778961,229.357117 
	C455.216858,230.353485 454.786743,231.458023 454.072418,232.329605 
	C445.987244,242.194519 437.993774,252.139694 429.691772,261.819885 
	C424.561432,267.801941 418.658478,273.127960 413.611877,279.173798 
	C406.062408,288.218079 397.398834,295.965454 388.018829,302.992645 
	C385.782562,304.667969 383.715851,306.636566 381.304718,307.998627 
	C374.445557,311.873444 367.551361,315.715607 360.470306,319.157867 
	C355.733490,321.460632 350.686035,323.147003 345.718018,324.944580 
	C341.742798,326.382904 337.669250,327.547455 333.656464,328.884857 
	C331.783142,329.509186 329.996918,330.657959 328.091339,330.878387 
	C318.073029,332.037079 308.031219,333.811249 297.993835,333.835876 
	C265.409210,333.915833 232.822952,333.321686 200.237198,333.001587 
	C195.824799,332.958221 191.411591,332.997681 187.152466,332.704346 
	C189.204636,330.607910 191.103058,328.805878 193.325027,326.966553 
	C194.765320,326.285767 195.882080,325.642273 197.409180,324.997437 
	C207.721573,324.330719 217.618927,323.189270 227.526566,323.091522 
	C254.518494,322.825226 281.515442,322.897949 308.508881,323.072693 
	C315.146851,323.115631 321.160919,321.983856 327.255463,319.091492 
	C334.127533,315.830109 342.196808,316.335297 349.172058,312.230560 
	C356.693787,307.804321 365.463623,305.512726 373.037384,301.156921 
	C379.339447,297.532440 384.705719,292.277069 390.471710,287.725403 
	C395.265350,283.941315 400.563324,280.626953 404.716125,276.233307 
	C415.288269,265.048004 425.497528,253.506989 435.548737,241.846878 
	C441.446442,235.005112 446.628143,227.549576 452.427734,220.617615 
	C454.087158,218.634216 456.779846,217.515289 458.999023,216.450394 
	C459.275421,219.946747 459.256897,223.064438 459.972626,226.003296 
	C460.259186,227.179764 462.162720,227.962418 463.330261,228.924332 
z"/>
<path fill="#0E0E0F" opacity="1.000000" stroke="none" 
	d="
M186.998749,332.998779 
	C191.411591,332.997681 195.824799,332.958221 200.237198,333.001587 
	C232.822952,333.321686 265.409210,333.915833 297.993835,333.835876 
	C308.031219,333.811249 318.073029,332.037079 328.091339,330.878387 
	C329.996918,330.657959 331.783142,329.509186 333.656464,328.884857 
	C337.669250,327.547455 341.742798,326.382904 345.718018,324.944580 
	C350.686035,323.147003 355.733490,321.460632 360.470306,319.157867 
	C367.551361,315.715607 374.445557,311.873444 381.304718,307.998627 
	C383.715851,306.636566 385.782562,304.667969 388.018829,302.992645 
	C397.398834,295.965454 406.062408,288.218079 413.611877,279.173798 
	C418.658478,273.127960 424.561432,267.801941 429.691772,261.819885 
	C437.993774,252.139694 445.987244,242.194519 454.072418,232.329605 
	C454.786743,231.458023 455.216858,230.353485 455.778961,229.357117 
	C456.305023,229.559097 456.831055,229.761063 457.357117,229.963028 
	C458.148743,232.189224 458.726349,234.527130 459.809052,236.601410 
	C460.504303,237.933365 461.943298,238.877106 463.430267,240.000244 
	C463.849670,242.708252 463.887756,245.410858 463.867218,248.561157 
	C458.223938,250.124695 459.957153,243.522629 455.947021,241.811371 
	C452.653076,246.357101 449.208649,250.911575 445.977051,255.612366 
	C439.641602,264.828094 431.981476,272.713593 423.646942,280.190125 
	C416.901154,286.241486 411.554840,293.825684 405.238403,300.394043 
	C401.989594,303.772369 398.130707,306.634552 394.275238,309.342346 
	C388.542664,313.368469 382.617859,317.129120 376.681976,320.854736 
	C372.117828,323.719330 367.569244,326.683258 362.734589,329.027191 
	C351.902283,334.278900 340.898376,338.737244 328.467743,339.232208 
	C321.791718,339.498047 315.210419,341.932739 308.564087,343.278656 
	C306.469177,343.702881 304.302124,343.967651 302.167664,343.970337 
	C268.710297,344.012604 235.252380,344.087372 201.795929,343.906860 
	C196.713913,343.879486 191.653763,342.445343 186.554688,341.972595 
	C183.336304,341.674194 180.064392,341.953247 176.561813,341.688293 
	C179.538712,338.602600 182.770264,335.801910 186.251068,333.000610 
	C186.500290,333.000000 186.998749,332.998779 186.998749,332.998779 
z"/>
<path fill="#18191A" opacity="1.000000" stroke="none" 
	d="
M463.807617,159.056549 
	C463.843262,171.735779 463.878937,184.414993 463.497681,197.680405 
	C462.720093,202.843719 462.359436,207.420853 461.764648,211.834015 
	C461.020325,211.113586 460.510162,210.557098 459.999939,209.546509 
	C459.998688,206.062347 459.997498,203.032303 459.997437,199.541824 
	C459.498260,194.066910 461.636414,188.446747 456.323700,183.815094 
	C453.037170,188.505310 449.925629,192.916962 446.844879,197.349991 
	C443.276733,202.484329 440.241333,208.095947 436.078552,212.687973 
	C427.156738,222.529846 417.131470,231.402206 408.553528,241.515900 
	C400.870605,250.574326 391.435699,257.453003 382.575256,265.031158 
	C378.268341,268.714783 372.151459,270.294769 367.886505,274.011871 
	C361.702179,279.401794 355.048676,281.797363 346.869568,280.709991 
	C345.398071,278.096039 344.109039,275.773010 343.008362,273.159912 
	C348.465607,271.117859 353.989716,269.887329 358.932404,267.468658 
	C363.983185,264.997131 368.566223,261.502625 373.165649,258.194031 
	C378.107788,254.638916 382.827423,250.774780 387.650665,247.053970 
	C390.624237,244.760040 393.639679,242.519409 396.581818,240.186127 
	C399.547729,237.833954 402.815735,235.727646 405.311218,232.940460 
	C416.889008,220.009384 428.257965,206.890991 439.663330,193.806259 
	C441.176666,192.070068 442.719330,190.279709 443.821930,188.279373 
	C448.013763,180.674286 452.030548,172.972687 456.159058,165.220200 
	C457.678436,165.926010 458.836151,166.463837 459.995239,167.469574 
	C459.996552,173.370209 459.996552,178.802933 459.996552,184.235641 
	C460.664734,184.223129 461.332886,184.210617 462.001068,184.198090 
	C462.001068,177.500031 461.882172,170.798370 462.083679,164.106369 
	C462.134857,162.407333 463.205414,160.738983 463.807617,159.056549 
z"/>
<path fill="#090A0C" opacity="1.000000" stroke="none" 
	d="
M421.047546,307.677032 
	C413.962585,310.817688 406.927368,313.600433 399.530823,316.490784 
	C400.810211,314.250183 402.207672,311.676636 404.136292,309.595245 
	C410.387512,302.848938 416.789093,296.239716 423.219025,289.662079 
	C428.046448,284.723724 433.432220,280.265747 437.802490,274.962006 
	C443.541656,267.996948 448.533600,260.415558 453.831848,253.088348 
	C454.807892,251.738495 455.712280,250.336868 456.459045,249.239441 
	C459.072052,251.119247 461.071899,252.557968 463.436035,253.999542 
	C463.844208,259.363403 463.888153,264.724396 463.868134,270.550781 
	C463.471313,271.009979 463.063812,271.127899 462.816498,270.979340 
	C456.557983,267.219574 454.196716,271.856293 450.898407,275.917084 
	C444.699768,283.548584 440.244263,292.665771 431.505219,298.221741 
	C427.661560,300.665436 424.544312,304.251648 421.047546,307.677032 
z"/>
<path fill="#222324" opacity="1.000000" stroke="none" 
	d="
M463.863281,158.585236 
	C463.205414,160.738983 462.134857,162.407333 462.083679,164.106369 
	C461.882172,170.798370 462.001068,177.500031 462.001068,184.198090 
	C461.332886,184.210617 460.664734,184.223129 459.996552,184.235641 
	C459.996552,178.802933 459.996552,173.370209 459.997864,167.000870 
	C459.995728,159.377548 459.992279,152.690857 459.992065,145.566162 
	C459.997284,143.084808 459.999268,141.041473 460.388062,138.890228 
	C461.182037,137.293137 461.893005,135.813492 461.940155,134.312973 
	C462.090057,129.543671 461.992645,124.766579 461.992920,119.616608 
	C461.988708,118.488129 461.982422,117.735558 461.981964,116.515427 
	C461.995026,107.370209 462.002289,98.692543 462.009521,90.014877 
	C462.447052,90.008827 462.884552,90.002777 463.649963,89.996964 
	C463.958221,112.702766 463.938599,135.408340 463.863281,158.585236 
z"/>
<path fill="#121417" opacity="1.000000" stroke="none" 
	d="
M463.377563,228.552490 
	C462.162720,227.962418 460.259186,227.179764 459.972626,226.003296 
	C459.256897,223.064438 459.275421,219.946747 459.249329,216.450317 
	C459.666260,215.999680 459.833130,215.999542 460.384949,215.997803 
	C461.286804,215.978302 461.803650,215.960373 462.320526,215.942444 
	C462.688660,220.021835 463.056793,224.101242 463.377563,228.552490 
z"/>
<path fill="#121417" opacity="1.000000" stroke="none" 
	d="
M461.998779,211.997986 
	C462.359436,207.420853 462.720093,202.843719 463.446655,198.148270 
	C463.576630,203.417618 463.340698,208.805298 462.619446,213.955261 
	C462.089050,213.144363 462.043915,212.571182 461.998779,211.997986 
z"/>
<path fill="#151617" opacity="1.000000" stroke="none" 
	d="
M461.764648,211.834015 
	C462.043915,212.571182 462.089050,213.144363 462.242828,214.145721 
	C462.406464,214.876190 462.419098,215.180267 462.354919,215.714279 
	C461.803650,215.960373 461.286804,215.978302 460.384949,215.569443 
	C460.000000,213.428650 460.000000,211.714630 460.000000,210.000610 
	C460.510162,210.557098 461.020325,211.113586 461.764648,211.834015 
z"/>
<path fill="#2B2E32" opacity="1.000000" stroke="none" 
	d="
M42.966263,213.470276 
	C42.281128,205.251709 41.595989,197.033127 41.334686,188.377533 
	C45.123516,188.257904 46.060959,186.437363 46.021843,183.411942 
	C45.938251,176.946884 46.013931,170.479797 46.406670,164.010818 
	C52.057461,163.620605 51.983780,168.948227 54.519562,171.445404 
	C59.864105,176.708588 61.450500,184.919937 68.474571,189.104172 
	C73.433052,192.057907 78.089699,195.586960 82.598640,199.210632 
	C89.367165,204.650253 95.765808,210.552963 102.581039,215.930099 
	C104.956505,217.804306 108.416145,218.287689 110.838409,220.122208 
	C120.421516,227.380127 131.556824,230.884598 142.889984,233.969406 
	C148.244354,235.426834 153.658920,236.663132 159.093002,238.413147 
	C158.504868,243.547043 157.869949,248.267380 156.871704,253.044510 
	C153.731262,254.239349 150.499710,256.908508 148.257797,256.243164 
	C139.784851,253.728561 131.519531,250.391891 123.400665,246.849167 
	C117.848534,244.426453 112.654747,241.176132 107.327087,238.247894 
	C104.496918,236.692352 101.427826,235.389496 98.980675,233.354416 
	C92.533989,227.993149 86.567513,222.046188 80.036873,216.796387 
	C73.054420,211.183380 65.453979,206.473404 60.058132,198.912674 
	C56.858635,194.429474 52.140320,191.030197 47.269600,186.339020 
	C46.793560,194.516434 46.400909,201.261307 46.006516,208.442886 
	C46.002163,210.918701 45.999557,212.957825 45.624229,214.997803 
	C44.506485,214.997238 43.761452,214.995834 43.000702,214.613495 
	C42.978745,213.978470 42.972504,213.724380 42.966263,213.470276 
z"/>
<path fill="#37393D" opacity="1.000000" stroke="none" 
	d="
M46.024368,164.013535 
	C46.013931,170.479797 45.938251,176.946884 46.021843,183.411942 
	C46.060959,186.437363 45.123516,188.257904 41.339233,187.944214 
	C40.923656,182.954239 40.927361,177.960556 41.348778,172.411789 
	C42.174316,170.360779 42.883022,168.875061 42.934322,167.366989 
	C43.097225,162.578217 43.014984,157.781097 43.398014,152.991180 
	C44.509594,152.993423 45.250660,152.991699 45.995888,153.449280 
	C46.008160,157.276901 46.016266,160.645218 46.024368,164.013535 
z"/>
<path fill="#424448" opacity="1.000000" stroke="none" 
	d="
M45.991726,152.989990 
	C45.250660,152.991699 44.509594,152.993423 43.387054,152.605026 
	C43.006008,151.694794 43.006432,151.174698 43.006859,150.654587 
	C42.988594,144.470505 42.970333,138.286423 42.964802,131.175400 
	C42.984066,127.499077 42.990601,124.749687 42.997131,122.000305 
	C43.749508,122.001053 44.501877,122.001801 45.631130,122.419434 
	C46.011364,124.225647 46.014721,125.614967 46.013020,127.471405 
	C46.007896,133.293472 46.007832,138.648422 46.004944,144.452972 
	C45.998653,147.598373 45.995190,150.294174 45.991726,152.989990 
z"/>
<path fill="#101111" opacity="1.000000" stroke="none" 
	d="
M42.607666,213.511902 
	C42.972504,213.724380 42.978745,213.978470 42.989151,215.078583 
	C43.001705,220.280640 43.010098,224.636658 43.009819,229.456512 
	C43.005871,233.942535 43.010601,237.964737 43.010101,242.450897 
	C43.007648,246.940750 43.010426,250.966644 42.896439,255.203583 
	C42.583054,255.679428 42.332813,255.875961 42.028942,256.004211 
	C41.921680,255.725677 41.754257,255.489883 41.339569,255.186584 
	C41.096012,241.682129 41.039570,228.287918 40.927536,214.423737 
	C41.330990,213.820374 41.790031,213.686951 42.607666,213.511902 
z"/>
<path fill="#1D1E1F" opacity="1.000000" stroke="none" 
	d="
M42.981651,121.531876 
	C42.990601,124.749687 42.984066,127.499077 42.995438,130.719971 
	C42.347137,129.571198 41.128960,127.959328 41.104076,126.329239 
	C40.939472,115.544838 41.031094,104.756516 41.028446,93.505287 
	C41.657822,98.220741 42.488861,103.386116 42.877682,108.584564 
	C43.187241,112.723236 42.956860,116.902306 42.981651,121.531876 
z"/>
<path fill="#1D1E1F" opacity="1.000000" stroke="none" 
	d="
M42.597626,150.793488 
	C43.006432,151.174698 43.006008,151.694794 43.016541,152.601059 
	C43.014984,157.781097 43.097225,162.578217 42.934322,167.366989 
	C42.883022,168.875061 42.174316,170.360779 41.366882,171.947647 
	C40.974812,166.484680 40.900127,160.928635 41.044502,155.378296 
	C41.083286,153.887421 41.788891,152.413879 42.597626,150.793488 
z"/>
<path fill="#3E4247" opacity="1.000000" stroke="none" 
	d="
M423.985748,45.017986 
	C424.620453,44.560337 425.255127,44.102680 425.939575,43.331333 
	C437.533875,46.713451 447.063171,53.148884 453.226044,63.794769 
	C455.508545,67.737556 457.089600,72.086388 458.627747,76.626511 
	C457.511353,76.999710 456.757721,76.996437 455.956665,76.632072 
	C453.932587,72.515411 451.955902,68.759842 449.829163,64.705643 
	C444.858215,58.289131 439.760498,52.510574 431.832458,49.685108 
	C429.100922,47.927612 426.543335,46.472797 423.985748,45.017986 
z"/>
<path fill="#33373D" opacity="1.000000" stroke="none" 
	d="
M456.004120,76.993164 
	C456.757721,76.996437 457.511353,76.999710 458.642273,77.004227 
	C459.824219,78.527023 460.628784,80.048561 461.702606,82.211807 
	C461.982788,84.565262 461.993683,86.277016 462.004578,87.988770 
	C462.003387,88.438896 462.002167,88.889023 462.005249,89.677017 
	C462.002289,98.692543 461.995026,107.370209 461.652924,116.520874 
	C460.878723,116.995918 460.439362,116.997963 460.000092,116.532074 
	C459.991211,110.379898 459.982239,104.695633 459.981262,98.559441 
	C458.987885,92.073479 457.986450,86.039452 456.956665,79.686905 
	C456.620239,78.576653 456.312195,77.784904 456.004120,76.993164 
z"/>
<path fill="#222324" opacity="1.000000" stroke="none" 
	d="
M462.272705,87.715950 
	C461.993683,86.277016 461.982788,84.565262 461.952362,82.425537 
	C462.110504,81.997482 462.288177,81.997414 462.732300,81.999481 
	C462.846130,83.815453 462.693451,85.629295 462.272705,87.715950 
z"/>
<path fill="#090A0C" opacity="1.000000" stroke="none" 
	d="
M160.001221,353.001221 
	C159.742569,353.496735 159.483902,353.992249 159.112625,354.743896 
	C150.850220,359.756836 143.872742,355.051605 136.685516,352.199463 
	C133.318527,350.863373 130.128372,348.911194 126.656845,348.040771 
	C116.065475,345.385284 107.261589,339.690979 99.201073,332.657562 
	C94.595467,328.638794 90.320724,324.236725 85.661919,320.284332 
	C82.052460,317.222229 77.624863,315.031219 74.359512,311.675873 
	C67.275475,304.396637 60.681087,296.639038 53.931435,289.037140 
	C51.219662,285.982971 48.019081,284.333649 43.428162,284.999207 
	C43.002457,282.956543 43.001865,280.914307 43.368740,278.427917 
	C47.760983,275.677948 49.894485,276.741730 52.760220,280.755615 
	C59.162323,289.722778 66.154404,298.226562 75.200935,305.050568 
	C84.791733,312.285187 93.226173,321.033722 102.574776,328.616669 
	C107.037575,332.236572 112.324486,334.923828 117.459839,337.609558 
	C123.538139,340.788513 129.751785,343.763367 136.096161,346.364777 
	C143.773315,349.512756 150.959732,354.686584 160.001221,353.001221 
z"/>
<path fill="#121417" opacity="1.000000" stroke="none" 
	d="
M186.001831,333.001221 
	C182.770264,335.801910 179.538712,338.602600 176.151764,341.700317 
	C174.555817,342.638794 173.115234,343.280212 171.081070,343.722565 
	C167.564560,343.475616 164.100754,344.433899 161.813080,343.204224 
	C152.320374,338.101501 141.239746,338.140747 131.730942,332.670013 
	C119.117416,325.412994 105.415688,320.259430 94.725761,309.645233 
	C85.890472,300.872528 75.955757,293.209106 66.548752,285.007599 
	C65.308640,283.926422 64.222382,282.636261 63.213764,281.328094 
	C60.115780,277.310120 57.228394,273.120544 53.974804,269.235840 
	C52.475647,267.445862 50.314892,266.210022 48.964676,265.130951 
	C46.483715,266.741791 44.746613,267.869690 43.009514,268.997559 
	C43.006718,267.608795 43.003922,266.220062 43.375065,264.356689 
	C45.203159,260.969727 46.657314,258.057373 48.447178,254.472626 
	C50.539936,256.006775 52.616295,257.090851 54.098717,258.716522 
	C56.425518,261.268097 58.030388,264.520264 60.502670,266.889648 
	C71.624725,277.548828 82.941765,288.004669 94.196861,298.524841 
	C95.879387,300.097504 97.440605,301.877472 99.346832,303.117432 
	C103.609146,305.889954 108.159370,308.222229 112.401833,311.022430 
	C121.167130,316.807831 130.048431,322.296936 140.265305,325.228668 
	C146.427948,326.996979 152.484070,329.206757 158.725235,330.606598 
	C162.877396,331.537903 167.523102,330.621185 171.493530,331.920349 
	C176.399323,333.525543 181.018646,334.481567 186.001831,333.001221 
z"/>
<path fill="#131619" opacity="1.000000" stroke="none" 
	d="
M186.251068,333.000610 
	C181.018646,334.481567 176.399323,333.525543 171.493530,331.920349 
	C167.523102,330.621185 162.877396,331.537903 158.725235,330.606598 
	C152.484070,329.206757 146.427948,326.996979 140.265305,325.228668 
	C130.048431,322.296936 121.167130,316.807831 112.401833,311.022430 
	C108.159370,308.222229 103.609146,305.889954 99.346832,303.117432 
	C97.440605,301.877472 95.879387,300.097504 94.196861,298.524841 
	C82.941765,288.004669 71.624725,277.548828 60.502670,266.889648 
	C58.030388,264.520264 56.425518,261.268097 54.098717,258.716522 
	C52.616295,257.090851 50.539936,256.006775 48.447178,254.472626 
	C46.657314,258.057373 45.203159,260.969727 43.378864,263.940063 
	C42.785423,261.577057 42.562119,259.156097 42.183880,256.369659 
	C42.332813,255.875961 42.583054,255.679428 43.292290,255.185852 
	C44.537720,253.719849 45.374882,252.531250 45.979084,251.234116 
	C46.905533,249.245178 47.671616,247.181534 48.505760,245.149597 
	C50.276569,246.206009 52.454041,246.907150 53.743965,248.383667 
	C58.071442,253.337158 61.623413,259.040924 66.315742,263.586823 
	C74.517166,271.532257 83.090172,279.147736 91.985634,286.307404 
	C100.096703,292.835754 108.663269,298.848846 117.376740,304.558472 
	C122.383087,307.838928 128.081985,310.061859 133.466797,312.765503 
	C141.888535,316.994019 150.643021,319.908722 160.203354,320.092224 
	C161.898849,320.124786 163.560699,321.277740 165.261078,321.844360 
	C167.523849,322.598328 169.763199,323.563080 172.093414,323.947723 
	C179.041595,325.094696 186.029251,326.002594 193.001495,327.003845 
	C191.103058,328.805878 189.204636,330.607910 187.152466,332.704346 
	C186.998749,332.998779 186.500290,333.000000 186.251068,333.000610 
z"/>
<path fill="#101111" opacity="1.000000" stroke="none" 
	d="
M43.005577,269.426086 
	C44.746613,267.869690 46.483715,266.741791 48.964676,265.130951 
	C50.314892,266.210022 52.475647,267.445862 53.974804,269.235840 
	C57.228394,273.120544 60.115780,277.310120 63.213764,281.328094 
	C64.222382,282.636261 65.308640,283.926422 66.548752,285.007599 
	C75.955757,293.209106 85.890472,300.872528 94.725761,309.645233 
	C105.415688,320.259430 119.117416,325.412994 131.730942,332.670013 
	C141.239746,338.140747 152.320374,338.101501 161.813080,343.204224 
	C164.100754,344.433899 167.564560,343.475616 170.743500,343.761139 
	C169.764114,345.474213 168.528732,346.949646 167.146545,348.711304 
	C166.555649,348.998749 166.111526,348.999939 164.959595,348.836060 
	C160.979019,348.323730 157.490921,348.583649 154.474411,347.513824 
	C145.880478,344.466003 137.391006,341.076996 129.034500,337.424042 
	C124.135185,335.282379 119.295303,332.774872 114.908691,329.738464 
	C106.000931,323.572479 97.200539,317.206299 88.775719,310.402771 
	C82.646545,305.453094 77.690437,298.959351 71.293297,294.458923 
	C64.996826,290.029297 60.257248,284.801727 56.379227,278.307983 
	C54.742031,275.566498 52.038826,273.089325 49.230804,271.612976 
	C48.190266,271.065918 45.463303,273.733459 43.497952,274.922577 
	C43.367466,275.001526 43.173195,274.975037 43.008591,274.997559 
	C43.006275,273.283264 43.003960,271.568939 43.005577,269.426086 
z"/>
<path fill="#0E0E0F" opacity="1.000000" stroke="none" 
	d="
M43.005669,275.372528 
	C43.173195,274.975037 43.367466,275.001526 43.497952,274.922577 
	C45.463303,273.733459 48.190266,271.065918 49.230804,271.612976 
	C52.038826,273.089325 54.742031,275.566498 56.379227,278.307983 
	C60.257248,284.801727 64.996826,290.029297 71.293297,294.458923 
	C77.690437,298.959351 82.646545,305.453094 88.775719,310.402771 
	C97.200539,317.206299 106.000931,323.572479 114.908691,329.738464 
	C119.295303,332.774872 124.135185,335.282379 129.034500,337.424042 
	C137.391006,341.076996 145.880478,344.466003 154.474411,347.513824 
	C157.490921,348.583649 160.979019,348.323730 164.626511,348.836731 
	C163.533783,350.244873 162.066299,351.487335 160.300018,352.865479 
	C150.959732,354.686584 143.773315,349.512756 136.096161,346.364777 
	C129.751785,343.763367 123.538139,340.788513 117.459839,337.609558 
	C112.324486,334.923828 107.037575,332.236572 102.574776,328.616669 
	C93.226173,321.033722 84.791733,312.285187 75.200935,305.050568 
	C66.154404,298.226562 59.162323,289.722778 52.760220,280.755615 
	C49.894485,276.741730 47.760983,275.677948 43.370182,277.990204 
	C43.003689,277.246948 43.003220,276.497223 43.005669,275.372528 
z"/>
<path fill="#424448" opacity="1.000000" stroke="none" 
	d="
M47.021362,80.005180 
	C55.077492,58.609234 71.294510,43.943504 96.348068,43.986820 
	C139.586685,44.061581 182.825516,44.007671 226.462341,44.358414 
	C226.274460,45.790337 225.688492,46.871601 224.874527,48.373608 
	C233.063614,49.943565 240.756821,51.418457 248.917542,52.982979 
	C247.151093,57.655884 248.977509,58.857677 252.824402,59.284054 
	C255.908417,59.625877 258.862396,61.140842 263.398590,62.638527 
	C260.548889,64.435532 259.051514,65.238129 257.726288,66.263283 
	C256.781891,66.993851 256.069000,68.023743 255.252808,68.920052 
	C256.258301,69.607658 257.310486,70.237106 258.257629,70.997398 
	C259.477783,71.976868 261.739777,73.252953 261.600830,74.068733 
	C260.785645,78.854256 263.826660,78.718643 266.963074,79.046150 
	C269.906952,79.353546 272.810150,80.051056 275.415833,80.520126 
	C273.572723,84.546516 272.177643,87.594185 270.326782,90.689636 
	C254.861206,89.080933 239.912140,89.432236 224.903259,91.781601 
	C225.416977,89.761467 226.183304,88.088211 226.674438,86.337746 
	C227.369202,83.861465 229.740143,80.947098 224.697998,79.956039 
	C218.490601,78.735939 218.217636,77.880829 221.054001,72.739212 
	C217.050262,69.725243 210.815048,73.008224 207.010757,67.930122 
	C209.298492,66.542809 211.126160,65.434479 214.221680,63.557316 
	C211.428207,62.637257 210.070877,62.294743 208.797394,61.754589 
	C196.176590,56.401508 182.731079,60.377110 169.725815,58.434467 
	C162.830414,57.404476 155.359100,60.025738 148.176407,61.177429 
	C139.982101,62.491333 135.735489,70.124130 128.808075,73.697784 
	C125.779716,75.260040 124.341652,79.905006 122.046951,83.352066 
	C121.925049,85.100914 121.757103,87.510399 121.558891,90.354012 
	C123.740204,91.262566 126.286575,92.323181 129.981476,93.862175 
	C127.142563,95.775940 125.328476,96.998848 122.686722,98.779701 
	C126.817795,99.923721 129.234467,100.592979 131.925125,101.338104 
	C131.224228,102.944168 130.780609,103.960678 130.337006,104.977180 
	C130.881927,104.976189 131.426834,104.975189 131.971756,104.974190 
	C132.204102,106.978935 132.475647,108.980087 132.659805,110.989250 
	C132.949585,114.150635 132.645050,117.510071 133.682434,120.393379 
	C134.140030,121.665215 137.271606,121.974983 139.268112,122.752243 
	C139.135544,127.384407 142.906540,126.393303 145.765823,127.071434 
	C147.903076,127.578339 151.080353,128.251633 151.694824,129.725937 
	C153.197800,133.332169 155.156708,135.013885 159.051514,135.123230 
	C160.538193,135.164978 161.988403,136.505844 163.202850,137.125839 
	C165.615906,134.784882 168.011841,132.460510 170.365784,130.515533 
	C168.364990,136.434509 166.263351,141.929260 164.503967,147.531494 
	C163.534805,150.617493 162.729080,153.909729 164.875748,157.225357 
	C162.415726,159.207764 160.111221,160.876144 157.075958,163.073547 
	C155.924179,156.761185 151.960846,158.937439 149.050278,158.879562 
	C137.620346,158.652328 130.425690,149.864563 121.144890,145.322449 
	C120.654602,145.082504 120.518440,144.194641 120.113670,143.691956 
	C117.565651,140.527649 114.996521,137.380203 112.415199,134.242935 
	C111.708992,133.384644 110.333054,132.607849 110.293915,131.746826 
	C110.049454,126.369087 108.326180,122.284576 102.539658,120.850670 
	C101.890015,120.689690 101.121613,119.379204 101.101250,118.584023 
	C101.003098,114.752151 98.591507,113.598785 95.377769,112.919800 
	C94.293159,112.690659 92.551552,111.671265 92.523308,110.957146 
	C92.291176,105.086700 92.392265,99.203079 92.392265,92.673218 
	C88.689774,91.429878 91.998573,87.981728 91.505318,85.227562 
	C90.414337,79.135895 90.972145,73.930641 94.703522,69.032303 
	C94.899544,68.774979 94.561798,68.111031 94.423737,67.376816 
	C88.242226,66.623123 82.401009,66.609085 76.806801,70.338989 
	C74.012749,72.201912 70.445824,73.158592 67.089645,73.872559 
	C60.204826,75.337181 52.528145,74.045624 47.021362,80.005180 
z"/>
<path fill="#3E4043" opacity="1.000000" stroke="none" 
	d="
M47.016182,80.339363 
	C52.528145,74.045624 60.204826,75.337181 67.089645,73.872559 
	C70.445824,73.158592 74.012749,72.201912 76.806801,70.338989 
	C82.401009,66.609085 88.242226,66.623123 94.423737,67.376816 
	C94.561798,68.111031 94.899544,68.774979 94.703522,69.032303 
	C90.972145,73.930641 90.414337,79.135895 91.505318,85.227562 
	C91.998573,87.981728 88.689774,91.429878 92.392265,92.673218 
	C92.392265,99.203079 92.291176,105.086700 92.523308,110.957146 
	C92.551552,111.671265 94.293159,112.690659 95.377769,112.919800 
	C98.591507,113.598785 101.003098,114.752151 101.101250,118.584023 
	C101.121613,119.379204 101.890015,120.689690 102.539658,120.850670 
	C108.326180,122.284576 110.049454,126.369087 110.293915,131.746826 
	C110.333054,132.607849 111.708992,133.384644 112.415199,134.242935 
	C114.996521,137.380203 117.565651,140.527649 120.113670,143.691956 
	C120.518440,144.194641 120.654602,145.082504 121.144890,145.322449 
	C130.425690,149.864563 137.620346,158.652328 149.050278,158.879562 
	C151.960846,158.937439 155.924179,156.761185 157.075958,163.073547 
	C160.111221,160.876144 162.415726,159.207764 165.208603,157.370789 
	C168.638168,158.127945 171.522095,159.521271 174.531555,159.890091 
	C182.893143,160.914810 191.310059,161.481445 199.699417,162.288071 
	C212.778030,163.545502 212.356125,165.011734 217.251053,153.032928 
	C219.750443,155.283890 221.571762,157.586761 225.363251,157.117188 
	C228.846680,156.685806 231.206192,155.824631 234.168213,153.264023 
	C238.135513,149.834366 244.232651,148.691345 249.569763,147.077286 
	C254.141785,145.694565 259.610962,146.711029 262.391327,141.192261 
	C262.936401,140.110352 264.807129,139.696335 266.389008,139.106903 
	C275.979980,150.124283 273.505951,163.242935 274.069916,176.280472 
	C249.315475,179.499756 224.510971,180.706558 200.943787,188.669525 
	C198.585663,187.587479 196.138245,186.008835 194.016891,186.366165 
	C188.991272,187.212616 184.153152,189.117340 179.167389,190.288391 
	C177.637802,190.647659 174.790207,190.543945 174.401733,189.747345 
	C172.416306,185.676086 169.061584,187.313568 166.109650,187.153244 
	C164.213364,187.050262 162.296783,187.024689 160.430878,186.714417 
	C155.251526,185.853210 150.000244,185.203812 144.954193,183.824081 
	C139.961746,182.459000 135.072174,180.551834 130.358505,178.398590 
	C127.758629,177.210938 125.854530,174.236359 123.220390,173.433578 
	C112.361595,170.124222 106.592354,160.417862 98.254364,153.997971 
	C91.991928,149.176147 89.775826,140.298401 82.522903,135.965561 
	C81.708115,135.478806 80.972473,134.609375 80.556717,133.745758 
	C78.002831,128.440735 75.568100,123.078476 73.049492,117.756203 
	C72.638168,116.886993 71.938194,116.157722 71.491386,115.301308 
	C70.283073,112.985283 68.553261,110.747536 68.081589,108.277946 
	C66.755371,101.333992 65.019653,99.378326 59.266396,100.064835 
	C54.842716,100.592690 50.447113,101.355873 46.039024,102.014404 
	C46.361767,95.642296 46.684509,89.270195 47.007195,82.454544 
	C47.008423,81.565178 47.009712,81.119362 47.016182,80.339363 
z"/>
<path fill="#393D42" opacity="1.000000" stroke="none" 
	d="
M332.510315,43.978012 
	C340.341919,43.987309 347.707275,43.999302 355.496643,44.360126 
	C356.105438,46.029564 355.807983,48.015594 356.556580,48.558010 
	C360.204529,51.201321 363.685181,53.162590 365.154663,58.439426 
	C365.975769,61.387909 370.334259,63.169498 371.007935,67.957016 
	C371.712433,72.963486 375.231598,77.573883 377.348907,81.999031 
	C376.123627,84.441887 374.450928,86.632683 373.909027,89.074432 
	C372.359772,96.055099 371.399353,103.164505 369.949066,110.169800 
	C369.122070,114.164299 368.186646,118.223099 366.597321,121.953529 
	C363.938507,128.193985 360.749664,134.210938 357.716888,140.288513 
	C356.490173,142.746796 355.601562,145.693008 353.668213,147.419571 
	C347.891113,152.578735 341.673309,157.244461 335.883087,161.897598 
	C333.611969,160.790131 331.773865,159.893814 329.800415,158.600037 
	C329.117798,144.605438 327.999878,131.140579 320.997437,119.105347 
	C324.061035,118.951164 327.054657,122.573814 329.343964,118.751717 
	C330.887970,116.173889 332.009308,113.286858 332.949890,110.416946 
	C334.311523,106.262627 335.338715,101.998695 336.553162,97.620811 
	C335.181335,96.537895 333.767914,95.422142 331.872894,93.926216 
	C336.928436,90.139969 330.873505,88.887390 330.283386,85.791611 
	C333.421265,82.225113 331.921326,79.919853 327.735382,78.257912 
	C326.738892,77.862274 325.742950,76.548500 325.455505,75.468414 
	C324.788971,72.963837 324.555359,70.344040 324.010406,66.916626 
	C324.148926,66.717438 324.935028,65.587021 326.103149,63.907265 
	C316.663635,58.203339 307.578369,52.713497 298.511627,47.234833 
	C299.309784,46.202209 300.156189,45.107147 301.002625,44.012085 
	C311.349762,44.001633 321.696899,43.991173 332.510315,43.978012 
z"/>
<path fill="#3E4247" opacity="1.000000" stroke="none" 
	d="
M300.533783,44.003616 
	C300.156189,45.107147 299.309784,46.202209 298.511627,47.234833 
	C307.578369,52.713497 316.663635,58.203339 326.103149,63.907265 
	C324.935028,65.587021 324.148926,66.717438 324.010406,66.916626 
	C324.555359,70.344040 324.788971,72.963837 325.455505,75.468414 
	C325.742950,76.548500 326.738892,77.862274 327.735382,78.257912 
	C331.921326,79.919853 333.421265,82.225113 330.283386,85.791611 
	C330.873505,88.887390 336.928436,90.139969 331.872894,93.926216 
	C333.767914,95.422142 335.181335,96.537895 336.553162,97.620811 
	C335.338715,101.998695 334.311523,106.262627 332.949890,110.416946 
	C332.009308,113.286858 330.887970,116.173889 329.343964,118.751717 
	C327.054657,122.573814 324.061035,118.951164 320.733276,118.918488 
	C315.410675,113.885521 311.138092,108.541054 305.991486,104.243210 
	C295.887817,95.805817 283.350494,93.041306 270.782532,90.641861 
	C272.177643,87.594185 273.572723,84.546516 275.415833,80.520126 
	C272.810150,80.051056 269.906952,79.353546 266.963074,79.046150 
	C263.826660,78.718643 260.785645,78.854256 261.600830,74.068733 
	C261.739777,73.252953 259.477783,71.976868 258.257629,70.997398 
	C257.310486,70.237106 256.258301,69.607658 255.252808,68.920052 
	C256.069000,68.023743 256.781891,66.993851 257.726288,66.263283 
	C259.051514,65.238129 260.548889,64.435532 263.398590,62.638527 
	C258.862396,61.140842 255.908417,59.625877 252.824402,59.284054 
	C248.977509,58.857677 247.151093,57.655884 248.917542,52.982979 
	C240.756821,51.418457 233.063614,49.943565 224.874527,48.373608 
	C225.688492,46.871601 226.274460,45.790337 226.931046,44.365414 
	C251.356094,44.012886 275.710510,44.004017 300.533783,44.003616 
z"/>
<path fill="#33373D" opacity="1.000000" stroke="none" 
	d="
M329.935730,158.997498 
	C331.773865,159.893814 333.611969,160.790131 335.883087,161.897598 
	C341.673309,157.244461 347.891113,152.578735 353.668213,147.419571 
	C355.601562,145.693008 356.490173,142.746796 357.716888,140.288513 
	C360.749664,134.210938 363.938507,128.193985 366.597321,121.953529 
	C368.186646,118.223099 369.122070,114.164299 369.949066,110.169800 
	C371.399353,103.164505 372.359772,96.055099 373.909027,89.074432 
	C374.450928,86.632683 376.123627,84.441887 377.348907,81.999031 
	C375.231598,77.573883 371.712433,72.963486 371.007935,67.957016 
	C370.334259,63.169498 365.975769,61.387909 365.154663,58.439426 
	C363.685181,53.162590 360.204529,51.201321 356.556580,48.558010 
	C355.807983,48.015594 356.105438,46.029564 355.965942,44.367050 
	C378.377411,44.353168 400.743713,44.681198 423.547852,45.013603 
	C426.543335,46.472797 429.100922,47.927612 431.586426,49.940723 
	C426.944305,51.351673 422.346832,52.080563 417.810455,53.085342 
	C410.619171,54.678165 403.468750,56.455513 395.858917,58.259602 
	C396.952972,60.220436 397.884277,61.286217 398.151733,62.498463 
	C398.658203,64.793961 398.736542,67.180443 399.079956,69.516296 
	C399.464722,72.133438 400.185059,74.723129 400.330536,77.348534 
	C400.559204,81.474625 397.935455,85.341141 400.441559,89.900146 
	C401.746674,92.274460 401.509644,97.542587 399.779846,99.155388 
	C394.594696,103.989861 396.554871,111.187653 392.464813,116.540665 
	C388.934692,121.160797 388.473328,128.017303 386.061646,133.630051 
	C383.515656,139.555481 381.103241,145.551254 376.477142,150.474625 
	C372.651520,154.546097 370.428162,160.308304 366.228790,163.797729 
	C360.673431,168.413879 356.640045,175.030685 349.643341,177.719940 
	C343.266846,180.170822 338.914337,189.148285 330.000763,183.543747 
	C329.909912,175.055832 329.922821,167.026672 329.935730,158.997498 
z"/>
<path fill="#393C3F" opacity="1.000000" stroke="none" 
	d="
M46.030483,102.477661 
	C50.447113,101.355873 54.842716,100.592690 59.266396,100.064835 
	C65.019653,99.378326 66.755371,101.333992 68.081589,108.277946 
	C68.553261,110.747536 70.283073,112.985283 71.491386,115.301308 
	C71.938194,116.157722 72.638168,116.886993 73.049492,117.756203 
	C75.568100,123.078476 78.002831,128.440735 80.556717,133.745758 
	C80.972473,134.609375 81.708115,135.478806 82.522903,135.965561 
	C89.775826,140.298401 91.991928,149.176147 98.254364,153.997971 
	C106.592354,160.417862 112.361595,170.124222 123.220390,173.433578 
	C125.854530,174.236359 127.758629,177.210938 130.358505,178.398590 
	C135.072174,180.551834 139.961746,182.459000 144.954193,183.824081 
	C150.000244,185.203812 155.251526,185.853210 160.430878,186.714417 
	C162.296783,187.024689 164.213364,187.050262 166.109650,187.153244 
	C169.061584,187.313568 172.416306,185.676086 174.401733,189.747345 
	C174.790207,190.543945 177.637802,190.647659 179.167389,190.288391 
	C184.153152,189.117340 188.991272,187.212616 194.016891,186.366165 
	C196.138245,186.008835 198.585663,187.587479 200.637375,188.868591 
	C194.991730,192.327835 189.593582,195.204636 183.807663,198.066803 
	C182.309326,198.355392 181.140579,198.526382 180.098343,198.984955 
	C175.793060,200.879181 171.633362,206.471848 167.055267,199.313965 
	C166.823868,198.952148 165.796692,199.106003 165.141907,199.007233 
	C159.285416,198.123657 153.454163,196.935837 147.564987,196.451233 
	C143.194931,196.091660 139.047119,195.891388 135.008713,193.646347 
	C132.387131,192.188965 128.008545,193.034210 126.191635,191.143005 
	C119.954971,184.651306 109.707870,184.646912 104.425812,176.511063 
	C101.303986,171.702560 96.434929,168.026245 92.338791,163.853348 
	C90.035294,161.506668 87.746117,159.143677 85.379204,156.861984 
	C81.080475,152.718033 75.985207,149.159561 72.580978,144.387558 
	C67.998337,137.963654 63.771645,130.958664 61.103493,123.583931 
	C58.161827,115.453217 53.581192,113.532433 46.039627,116.007339 
	C46.033730,111.651871 46.027836,107.296394 46.030483,102.477661 
z"/>
<path fill="#37393D" opacity="1.000000" stroke="none" 
	d="
M46.029953,116.435089 
	C53.581192,113.532433 58.161827,115.453217 61.103493,123.583931 
	C63.771645,130.958664 67.998337,137.963654 72.580978,144.387558 
	C75.985207,149.159561 81.080475,152.718033 85.379204,156.861984 
	C87.746117,159.143677 90.035294,161.506668 92.338791,163.853348 
	C96.434929,168.026245 101.303986,171.702560 104.425812,176.511063 
	C109.707870,184.646912 119.954971,184.651306 126.191635,191.143005 
	C128.008545,193.034210 132.387131,192.188965 135.008713,193.646347 
	C139.047119,195.891388 143.194931,196.091660 147.564987,196.451233 
	C153.454163,196.935837 159.285416,198.123657 165.141907,199.007233 
	C165.796692,199.106003 166.823868,198.952148 167.055267,199.313965 
	C171.633362,206.471848 175.793060,200.879181 180.098343,198.984955 
	C181.140579,198.526382 182.309326,198.355392 183.669861,198.379700 
	C180.436401,202.185730 176.953003,205.664230 172.991180,209.107483 
	C166.113632,207.832809 158.995758,213.512344 153.127686,207.066589 
	C153.046814,206.977753 152.802338,207.053833 152.641220,207.019791 
	C144.515610,205.302307 136.388229,203.592850 128.270813,201.837341 
	C127.653526,201.703842 127.094070,201.263519 126.530334,200.927856 
	C121.091621,197.689575 115.893730,193.923904 110.166946,191.321320 
	C101.675491,187.462296 94.975304,181.524445 88.644341,174.991013 
	C83.709175,169.898010 78.922256,164.661575 74.006424,159.549500 
	C72.339584,157.816101 69.985863,156.564316 68.797287,154.582047 
	C64.500206,147.415512 60.373947,140.130295 56.549938,132.701111 
	C53.059719,125.920418 53.269295,125.812546 46.018078,127.004288 
	C46.014721,125.614967 46.011364,124.225647 46.007317,122.419662 
	C46.011173,120.289604 46.015724,118.576225 46.029953,116.435089 
z"/>
<path fill="#131414" opacity="1.000000" stroke="none" 
	d="
M459.999939,209.546509 
	C460.000000,211.714630 460.000000,213.428650 460.000000,215.571030 
	C459.833130,215.999542 459.666260,215.999680 459.249084,215.999878 
	C456.779846,217.515289 454.087158,218.634216 452.427734,220.617615 
	C446.628143,227.549576 441.446442,235.005112 435.548737,241.846878 
	C425.497528,253.506989 415.288269,265.048004 404.716125,276.233307 
	C400.563324,280.626953 395.265350,283.941315 390.471710,287.725403 
	C384.705719,292.277069 379.339447,297.532440 373.037384,301.156921 
	C365.463623,305.512726 356.693787,307.804321 349.172058,312.230560 
	C342.196808,316.335297 334.127533,315.830109 327.255463,319.091492 
	C321.160919,321.983856 315.146851,323.115631 308.508881,323.072693 
	C281.515442,322.897949 254.518494,322.825226 227.526566,323.091522 
	C217.618927,323.189270 207.721573,324.330719 197.575562,324.695190 
	C199.305466,321.625732 201.279327,318.857147 203.704300,316.025848 
	C227.186646,318.985107 248.987259,316.698273 267.795959,301.675720 
	C268.739532,303.368713 269.681641,305.726562 270.487518,305.680908 
	C278.006805,305.254639 286.016998,308.495789 293.236511,303.155701 
	C296.031647,306.115936 298.532379,308.930298 300.986633,311.784637 
	C305.481171,317.011902 311.005920,317.106598 316.219604,312.308655 
	C320.589050,308.287567 325.204712,304.533997 329.762939,301.115021 
	C330.054108,302.910706 330.293671,304.253357 330.656677,306.287903 
	C334.107117,303.972229 336.604797,301.627075 339.566589,300.441772 
	C346.626129,297.616577 353.912109,295.359680 361.087097,292.818054 
	C362.168701,292.434967 363.203186,291.841919 364.161316,291.199554 
	C370.747711,286.784180 377.496704,282.580780 383.826111,277.820801 
	C390.814362,272.565338 397.900482,267.278107 404.056885,261.118103 
	C412.361725,252.808380 419.777802,243.614517 427.656799,234.873520 
	C432.292725,229.730377 437.485504,225.038574 441.708069,219.586304 
	C446.951263,212.816116 451.450500,205.469788 456.320496,198.299591 
	C457.682953,198.930679 458.839630,199.466476 459.996338,200.002258 
	C459.997498,203.032303 459.998688,206.062347 459.999939,209.546509 
z"/>
<path fill="#17191D" opacity="1.000000" stroke="none" 
	d="
M203.253189,316.088562 
	C201.279327,318.857147 199.305466,321.625732 197.165222,324.696564 
	C195.882080,325.642273 194.765320,326.285767 193.325043,326.966553 
	C186.029251,326.002594 179.041595,325.094696 172.093414,323.947723 
	C169.763199,323.563080 167.523849,322.598328 165.261078,321.844360 
	C163.560699,321.277740 161.898849,320.124786 160.203354,320.092224 
	C150.643021,319.908722 141.888535,316.994019 133.466797,312.765503 
	C128.081985,310.061859 122.383087,307.838928 117.376740,304.558472 
	C108.663269,298.848846 100.096703,292.835754 91.985634,286.307404 
	C83.090172,279.147736 74.517166,271.532257 66.315742,263.586823 
	C61.623413,259.040924 58.071442,253.337158 53.743965,248.383667 
	C52.454041,246.907150 50.276569,246.206009 48.505760,245.149597 
	C47.671616,247.181534 46.905533,249.245178 45.979084,251.234116 
	C45.374882,252.531250 44.537720,253.719849 43.409058,254.974823 
	C43.010426,250.966644 43.007648,246.940750 43.405533,242.435471 
	C47.776825,240.662155 45.281097,237.321365 46.389946,235.001480 
	C48.588032,236.131393 50.842506,236.894180 52.144413,238.452682 
	C57.887207,245.327362 62.844536,253.005203 72.291489,256.028259 
	C73.056984,256.372253 73.528641,256.687347 74.007217,257.366577 
	C78.064468,262.183014 81.742470,267.062073 86.247612,270.993164 
	C94.073303,277.821716 102.351761,284.139313 110.549538,290.531158 
	C118.341003,296.606232 125.775093,303.443298 136.431763,304.121460 
	C137.049408,304.160797 137.642059,304.605438 138.244751,304.865173 
	C142.866882,306.856903 147.358505,309.268951 152.138382,310.752167 
	C161.314285,313.599548 170.662094,315.889832 179.921997,318.470764 
	C185.629868,320.061676 190.469421,317.603821 191.474945,312.698425 
	C195.654205,313.834747 199.453690,314.961639 203.253189,316.088562 
z"/>
<path fill="#FDFDFD" opacity="1.000000" stroke="none" 
	d="
M203.704300,316.025879 
	C199.453690,314.961639 195.654205,313.834747 191.243927,312.443726 
	C187.679337,310.710724 184.725571,309.241852 181.580017,307.454407 
	C177.493484,303.428040 173.598740,299.720245 169.622711,295.692230 
	C166.419861,289.245026 163.298294,283.118011 160.190323,276.578491 
	C159.214294,268.439880 158.224655,260.713806 157.235016,252.987717 
	C157.869949,248.267380 158.504868,243.547043 159.308395,238.106995 
	C161.075119,232.618988 162.673233,227.850723 164.529785,222.857391 
	C167.682007,218.135803 170.575806,213.639267 173.469604,209.142731 
	C176.953003,205.664230 180.436401,202.185730 184.057617,198.394348 
	C189.593582,195.204636 194.991730,192.327835 200.696289,189.251984 
	C224.510971,180.706558 249.315475,179.499756 274.069916,176.280472 
	C273.505951,163.242935 275.979980,150.124283 266.233276,138.800995 
	C255.879715,130.237457 244.827896,130.532639 233.825989,134.865509 
	C225.618484,138.097855 218.938354,143.568161 216.887634,152.957855 
	C212.356125,165.011734 212.778030,163.545502 199.699417,162.288071 
	C191.310059,161.481445 182.893143,160.914810 174.531555,159.890091 
	C171.522095,159.521271 168.638168,158.127945 165.364105,157.056747 
	C162.729080,153.909729 163.534805,150.617493 164.503967,147.531494 
	C166.263351,141.929260 168.364990,136.434509 170.721039,130.527527 
	C176.135056,123.843842 180.547546,116.901962 186.299026,111.346275 
	C197.055054,100.956383 210.821518,95.911674 225.032990,92.094002 
	C239.912140,89.432236 254.861206,89.080933 270.326782,90.689636 
	C283.350494,93.041306 295.887817,95.805817 305.991486,104.243210 
	C311.138092,108.541054 315.410675,113.885521 320.342468,118.943741 
	C327.999878,131.140579 329.117798,144.605438 329.800415,158.600037 
	C329.922821,167.026672 329.909912,175.055832 329.901886,184.002121 
	C329.972046,190.280060 330.037323,195.640884 330.002350,201.459900 
	C329.975403,207.282898 330.048676,212.647705 330.024384,218.470612 
	C329.985535,225.753067 330.044281,232.577423 330.005981,239.816513 
	C331.356842,246.874466 332.804779,253.517670 334.317627,260.527283 
	C337.195038,265.079102 340.007507,269.264526 342.819977,273.449951 
	C344.109039,275.773010 345.398071,278.096039 346.796692,281.102844 
	C345.969727,283.663177 345.429565,285.935516 344.023743,287.343628 
	C339.422546,291.952423 334.506378,296.246735 329.711304,300.661926 
	C325.204712,304.533997 320.589050,308.287567 316.219604,312.308655 
	C311.005920,317.106598 305.481171,317.011902 300.986633,311.784637 
	C298.532379,308.930298 296.031647,306.115936 293.127136,302.838928 
	C289.169983,297.839111 285.637512,293.283936 281.927399,288.499664 
	C277.039825,292.881073 272.385529,297.053345 267.731262,301.225616 
	C248.987259,316.698273 227.186646,318.985107 203.704300,316.025879 
M216.708054,238.777100 
	C216.706482,245.023300 215.740891,251.455078 216.900192,257.477814 
	C219.464951,270.802216 228.977570,277.548248 242.462479,276.654388 
	C250.600220,276.114960 257.051361,272.037994 261.851624,265.734497 
	C270.336090,254.593063 274.514252,241.987610 273.733276,227.042587 
	C273.733276,221.127228 273.733276,215.211868 273.733276,209.049133 
	C260.752899,208.615631 248.281723,210.017670 236.594055,215.267853 
	C226.678055,219.722183 219.000290,226.508347 216.708054,238.777100 
z"/>
<path fill="#1B1B1C" opacity="1.000000" stroke="none" 
	d="
M343.008362,273.159912 
	C340.007507,269.264526 337.195038,265.079102 334.775574,260.461212 
	C340.844086,258.421448 347.638885,260.059113 351.886353,254.266190 
	C352.032379,254.067093 352.534912,254.165115 352.833588,254.036850 
	C356.667267,252.390533 360.816315,251.221786 364.259644,248.973572 
	C373.132385,243.180359 381.773682,237.019836 390.343903,230.781372 
	C394.938721,227.436691 399.695770,224.086380 403.501404,219.933746 
	C411.331421,211.389877 418.604584,202.332962 426.042175,193.433121 
	C430.902252,187.617569 436.629944,182.247467 440.225952,175.717865 
	C446.277985,164.728516 450.943909,152.975815 456.257446,141.403595 
	C457.520935,142.961365 458.754883,144.482758 459.988831,146.004166 
	C459.992279,152.690857 459.995728,159.377548 459.996521,166.532944 
	C458.836151,166.463837 457.678436,165.926010 456.159058,165.220200 
	C452.030548,172.972687 448.013763,180.674286 443.821930,188.279373 
	C442.719330,190.279709 441.176666,192.070068 439.663330,193.806259 
	C428.257965,206.890991 416.889008,220.009384 405.311218,232.940460 
	C402.815735,235.727646 399.547729,237.833954 396.581818,240.186127 
	C393.639679,242.519409 390.624237,244.760040 387.650665,247.053970 
	C382.827423,250.774780 378.107788,254.638916 373.165649,258.194031 
	C368.566223,261.502625 363.983185,264.997131 358.932404,267.468658 
	C353.989716,269.887329 348.465607,271.117859 343.008362,273.159912 
z"/>
<path fill="#151617" opacity="1.000000" stroke="none" 
	d="
M329.762939,301.114990 
	C334.506378,296.246735 339.422546,291.952423 344.023743,287.343628 
	C345.429565,285.935516 345.969727,283.663177 346.979187,281.393738 
	C355.048676,281.797363 361.702179,279.401794 367.886505,274.011871 
	C372.151459,270.294769 378.268341,268.714783 382.575256,265.031158 
	C391.435699,257.453003 400.870605,250.574326 408.553528,241.515900 
	C417.131470,231.402206 427.156738,222.529846 436.078552,212.687973 
	C440.241333,208.095947 443.276733,202.484329 446.844879,197.349991 
	C449.925629,192.916962 453.037170,188.505310 456.323700,183.815094 
	C461.636414,188.446747 459.498260,194.066910 459.997437,199.541824 
	C458.839630,199.466476 457.682953,198.930679 456.320496,198.299591 
	C451.450500,205.469788 446.951263,212.816116 441.708069,219.586304 
	C437.485504,225.038574 432.292725,229.730377 427.656799,234.873520 
	C419.777802,243.614517 412.361725,252.808380 404.056885,261.118103 
	C397.900482,267.278107 390.814362,272.565338 383.826111,277.820801 
	C377.496704,282.580780 370.747711,286.784180 364.161316,291.199554 
	C363.203186,291.841919 362.168701,292.434967 361.087097,292.818054 
	C353.912109,295.359680 346.626129,297.616577 339.566589,300.441772 
	C336.604797,301.627075 334.107117,303.972229 330.656677,306.287903 
	C330.293671,304.253357 330.054108,302.910706 329.762939,301.114990 
z"/>
<path fill="#1D1E1F" opacity="1.000000" stroke="none" 
	d="
M459.992065,145.566162 
	C458.754883,144.482758 457.520935,142.961365 456.257446,141.403595 
	C450.943909,152.975815 446.277985,164.728516 440.225952,175.717865 
	C436.629944,182.247467 430.902252,187.617569 426.042175,193.433121 
	C418.604584,202.332962 411.331421,211.389877 403.501404,219.933746 
	C399.695770,224.086380 394.938721,227.436691 390.343903,230.781372 
	C381.773682,237.019836 373.132385,243.180359 364.259644,248.973572 
	C360.816315,251.221786 356.667267,252.390533 352.833588,254.036850 
	C352.534912,254.165115 352.032379,254.067093 351.886353,254.266190 
	C347.638885,260.059113 340.844086,258.421448 334.710663,260.094818 
	C332.804779,253.517670 331.356842,246.874466 330.392853,239.987381 
	C332.082489,241.201126 333.288208,242.658752 334.366333,243.962143 
	C336.690399,242.362503 338.244354,240.876526 340.095673,240.094772 
	C346.272980,237.486267 352.670441,235.377640 358.757416,232.584641 
	C362.417389,230.905258 365.667786,228.326538 369.083282,226.122604 
	C375.040497,222.278534 381.465942,218.981461 386.830048,214.434525 
	C397.590302,205.313431 407.357758,195.108459 415.316833,183.371582 
	C419.464111,177.255768 422.194702,169.820831 427.350433,164.823547 
	C437.437256,155.046692 438.722290,141.369400 445.298096,129.848663 
	C449.892670,126.339867 454.191071,122.986855 458.489441,119.633835 
	C458.993378,119.902100 459.497284,120.170364 460.001221,120.438629 
	C460.001221,126.625130 460.001221,132.811630 460.001221,138.998123 
	C459.999268,141.041473 459.997284,143.084808 459.992065,145.566162 
z"/>
<path fill="#252930" opacity="1.000000" stroke="none" 
	d="
M460.388062,138.890228 
	C460.001221,132.811630 460.001221,126.625130 460.001221,120.438629 
	C459.497284,120.170364 458.993378,119.902100 458.489441,119.633835 
	C454.191071,122.986855 449.892670,126.339867 445.000427,130.001236 
	C437.938965,135.208298 431.471344,140.107025 425.010742,144.630463 
	C426.415802,141.158295 427.950226,138.114410 429.178802,134.951721 
	C430.886871,130.554581 432.291260,126.040138 433.964172,121.628441 
	C435.561157,117.417000 437.329712,113.270447 439.034241,109.100021 
	C440.122406,106.437698 440.709839,101.951004 442.426605,101.462570 
	C448.052582,99.861954 454.092468,99.716309 459.973267,99.011368 
	C459.982239,104.695633 459.991211,110.379898 460.032867,116.849945 
	C460.707306,118.421326 461.349060,119.206917 461.990845,119.992508 
	C461.992645,124.766579 462.090057,129.543671 461.940155,134.312973 
	C461.893005,135.813492 461.182037,137.293137 460.388062,138.890228 
z"/>
<path fill="#292D35" opacity="1.000000" stroke="none" 
	d="
M461.992920,119.616608 
	C461.349060,119.206917 460.707306,118.421326 460.032776,117.317871 
	C460.439362,116.997963 460.878723,116.995918 461.647125,116.988426 
	C461.982422,117.735558 461.988708,118.488129 461.992920,119.616608 
z"/>
<path fill="#25272B" opacity="1.000000" stroke="none" 
	d="
M156.871704,253.044510 
	C158.224655,260.713806 159.214294,268.439880 159.752869,276.578918 
	C155.035416,276.524780 150.411575,276.951233 146.572693,275.415497 
	C136.827530,271.516937 127.437447,266.731873 117.895409,262.322937 
	C116.714256,261.777191 115.437813,261.434418 114.267189,260.869720 
	C109.978470,258.800903 105.174637,257.349670 101.556824,254.434647 
	C94.194145,248.502228 88.033112,240.981445 80.357224,235.558502 
	C70.015419,228.252121 60.112522,220.736465 52.660233,210.386490 
	C50.941513,207.999512 49.033134,206.548126 46.008263,208.006195 
	C46.400909,201.261307 46.793560,194.516434 47.269600,186.339020 
	C52.140320,191.030197 56.858635,194.429474 60.058132,198.912674 
	C65.453979,206.473404 73.054420,211.183380 80.036873,216.796387 
	C86.567513,222.046188 92.533989,227.993149 98.980675,233.354416 
	C101.427826,235.389496 104.496918,236.692352 107.327087,238.247894 
	C112.654747,241.176132 117.848534,244.426453 123.400665,246.849167 
	C131.519531,250.391891 139.784851,253.728561 148.257797,256.243164 
	C150.499710,256.908508 153.731262,254.239349 156.871704,253.044510 
z"/>
<path fill="#1F2225" opacity="1.000000" stroke="none" 
	d="
M46.006516,208.442886 
	C49.033134,206.548126 50.941513,207.999512 52.660233,210.386490 
	C60.112522,220.736465 70.015419,228.252121 80.357224,235.558502 
	C88.033112,240.981445 94.194145,248.502228 101.556824,254.434647 
	C105.174637,257.349670 109.978470,258.800903 114.267189,260.869720 
	C115.437813,261.434418 116.714256,261.777191 117.895409,262.322937 
	C127.437447,266.731873 136.827530,271.516937 146.572693,275.415497 
	C150.411575,276.951233 155.035416,276.524780 159.739273,276.991455 
	C163.298294,283.118011 166.419861,289.245026 169.238220,295.695435 
	C163.671097,297.670074 158.433395,299.442505 153.713470,294.587677 
	C153.248672,294.109619 151.775665,294.780365 150.915100,294.489868 
	C146.701111,293.067413 142.520325,291.541290 138.362808,289.959778 
	C137.025635,289.451080 135.838440,288.554443 134.508743,288.018768 
	C129.202988,285.881348 123.442886,284.515472 118.627602,281.586975 
	C106.521454,274.224396 94.739182,266.312714 84.617485,256.212036 
	C82.063683,253.663498 79.095238,251.534668 76.368942,249.153885 
	C71.451775,244.859894 66.411591,240.687759 61.737862,236.140869 
	C58.785072,233.268219 56.447784,229.770416 53.751678,226.623917 
	C51.720680,224.253662 49.373035,222.547287 46.002781,223.552521 
	C45.999832,220.400528 45.998390,217.698746 45.996948,214.996948 
	C45.999557,212.957825 46.002163,210.918701 46.006516,208.442886 
z"/>
<path fill="#303336" opacity="1.000000" stroke="none" 
	d="
M164.271362,223.082443 
	C162.673233,227.850723 161.075119,232.618988 159.261597,237.693436 
	C153.658920,236.663132 148.244354,235.426834 142.889984,233.969406 
	C131.556824,230.884598 120.421516,227.380127 110.838409,220.122208 
	C108.416145,218.287689 104.956505,217.804306 102.581039,215.930099 
	C95.765808,210.552963 89.367165,204.650253 82.598640,199.210632 
	C78.089699,195.586960 73.433052,192.057907 68.474571,189.104172 
	C61.450500,184.919937 59.864105,176.708588 54.519562,171.445404 
	C51.983780,168.948227 52.057461,163.620605 46.406670,164.010818 
	C46.016266,160.645218 46.008160,157.276901 45.995888,153.449280 
	C45.995190,150.294174 45.998653,147.598373 46.351059,144.496246 
	C48.305851,145.481445 50.280468,146.616913 51.454647,148.308121 
	C56.975998,156.260712 62.066734,164.520233 67.780571,172.326614 
	C69.597595,174.809067 73.023003,176.049454 75.438560,178.170151 
	C84.499588,186.125153 93.029327,194.751526 102.554588,202.092972 
	C112.181297,209.512619 123.186676,214.817841 135.107620,217.828461 
	C144.703506,220.251907 153.907486,224.906158 164.271362,223.082443 
z"/>
<path fill="#25272B" opacity="1.000000" stroke="none" 
	d="
M45.624229,214.997803 
	C45.998390,217.698746 45.999832,220.400528 46.001541,223.968719 
	C46.000370,226.222610 45.998932,227.610077 45.624901,228.998077 
	C44.507702,228.996613 43.763096,228.994644 43.018494,228.992676 
	C43.010098,224.636658 43.001705,220.280640 43.004868,215.459518 
	C43.761452,214.995834 44.506485,214.997238 45.624229,214.997803 
z"/>
<path fill="#35373A" opacity="1.000000" stroke="none" 
	d="
M164.529785,222.857391 
	C153.907486,224.906158 144.703506,220.251907 135.107620,217.828461 
	C123.186676,214.817841 112.181297,209.512619 102.554588,202.092972 
	C93.029327,194.751526 84.499588,186.125153 75.438560,178.170151 
	C73.023003,176.049454 69.597595,174.809067 67.780571,172.326614 
	C62.066734,164.520233 56.975998,156.260712 51.454647,148.308121 
	C50.280468,146.616913 48.305851,145.481445 46.353886,144.046661 
	C46.007832,138.648422 46.007896,133.293472 46.013020,127.471405 
	C53.269295,125.812546 53.059719,125.920418 56.549938,132.701111 
	C60.373947,140.130295 64.500206,147.415512 68.797287,154.582047 
	C69.985863,156.564316 72.339584,157.816101 74.006424,159.549500 
	C78.922256,164.661575 83.709175,169.898010 88.644341,174.991013 
	C94.975304,181.524445 101.675491,187.462296 110.166946,191.321320 
	C115.893730,193.923904 121.091621,197.689575 126.530334,200.927856 
	C127.094070,201.263519 127.653526,201.703842 128.270813,201.837341 
	C136.388229,203.592850 144.515610,205.302307 152.641220,207.019791 
	C152.802338,207.053833 153.046814,206.977753 153.127686,207.066589 
	C158.995758,213.512344 166.113632,207.832809 172.991180,209.107483 
	C170.575806,213.639267 167.682007,218.135803 164.529785,222.857391 
z"/>
<path fill="#1F2225" opacity="1.000000" stroke="none" 
	d="
M43.009819,229.456512 
	C43.763096,228.994644 44.507702,228.996613 45.626225,229.373962 
	C46.002228,230.500992 46.004311,231.252625 46.005020,232.378754 
	C46.005054,233.502365 46.006466,234.251480 46.007877,235.000610 
	C45.281097,237.321365 47.776825,240.662155 43.410767,241.971527 
	C43.010601,237.964737 43.005871,233.942535 43.009819,229.456512 
z"/>
<path fill="#30333A" opacity="1.000000" stroke="none" 
	d="
M330.102600,201.001709 
	C330.037323,195.640884 329.972046,190.280060 330.005676,184.460861 
	C338.914337,189.148285 343.266846,180.170822 349.643341,177.719940 
	C356.640045,175.030685 360.673431,168.413879 366.228790,163.797729 
	C370.428162,160.308304 372.651520,154.546097 376.477142,150.474625 
	C381.103241,145.551254 383.515656,139.555481 386.061646,133.630051 
	C388.473328,128.017303 388.934692,121.160797 392.464813,116.540665 
	C396.554871,111.187653 394.594696,103.989861 399.779846,99.155388 
	C401.509644,97.542587 401.746674,92.274460 400.441559,89.900146 
	C397.935455,85.341141 400.559204,81.474625 400.330536,77.348534 
	C400.185059,74.723129 399.464722,72.133438 399.079956,69.516296 
	C398.736542,67.180443 398.658203,64.793961 398.151733,62.498463 
	C397.884277,61.286217 396.952972,60.220436 395.858917,58.259602 
	C403.468750,56.455513 410.619171,54.678165 417.810455,53.085342 
	C422.346832,52.080563 426.944305,51.351673 431.760376,50.243404 
	C439.760498,52.510574 444.858215,58.289131 449.371277,64.704315 
	C441.493408,65.706558 433.898102,66.215675 426.362579,67.188286 
	C421.681549,67.792465 415.264954,73.780266 415.049469,77.222282 
	C414.636963,83.811829 414.592407,90.434334 413.921021,96.994637 
	C413.365814,102.419289 412.863129,108.045303 411.002197,113.089592 
	C408.790039,119.085815 404.536987,124.321358 402.255402,130.301285 
	C397.266754,143.376022 390.420471,155.218430 380.953674,165.476410 
	C375.299957,171.602676 369.508331,177.640778 363.349182,183.246658 
	C359.690033,186.577133 355.345459,189.247559 351.037415,191.746445 
	C346.573944,194.335464 341.252441,195.701218 337.324951,198.866211 
	C334.807312,200.895081 332.960144,201.733704 330.102600,201.001709 
z"/>
<path fill="#2D3137" opacity="1.000000" stroke="none" 
	d="
M330.002319,201.459900 
	C332.960144,201.733704 334.807312,200.895081 337.324951,198.866211 
	C341.252441,195.701218 346.573944,194.335464 351.037415,191.746445 
	C355.345459,189.247559 359.690033,186.577133 363.349182,183.246658 
	C369.508331,177.640778 375.299957,171.602676 380.953674,165.476410 
	C390.420471,155.218430 397.266754,143.376022 402.255402,130.301285 
	C404.536987,124.321358 408.790039,119.085815 411.002197,113.089592 
	C412.863129,108.045303 413.365814,102.419289 413.921021,96.994637 
	C414.592407,90.434334 414.636963,83.811829 415.049469,77.222282 
	C415.264954,73.780266 421.681549,67.792465 426.362579,67.188286 
	C433.898102,66.215675 441.493408,65.706558 449.521362,65.002945 
	C451.955902,68.759842 453.932587,72.515411 455.956665,76.632072 
	C456.312195,77.784904 456.620239,78.576653 456.575623,79.632027 
	C452.517212,79.316406 448.608704,77.711197 445.152496,78.394318 
	C439.742065,79.463699 434.588440,81.964417 429.445801,84.141724 
	C428.447815,84.564247 427.523651,86.223686 427.380157,87.410995 
	C426.863861,91.684174 427.428009,96.211823 426.254120,100.257469 
	C423.216736,110.725372 421.179779,121.460030 414.739014,130.889084 
	C407.046844,142.150192 400.697662,154.322037 393.564026,165.975296 
	C391.387970,169.530045 388.542816,172.675217 385.800049,176.267441 
	C383.574341,178.248016 381.609741,180.041946 379.521698,181.678391 
	C366.213806,192.107986 352.939026,202.581818 339.503510,212.844986 
	C336.697754,214.988251 333.265503,216.311401 330.121979,218.012497 
	C330.048676,212.647705 329.975403,207.282898 330.002319,201.459900 
z"/>
<path fill="#292D35" opacity="1.000000" stroke="none" 
	d="
M386.004089,176.007965 
	C388.542816,172.675217 391.387970,169.530045 393.564026,165.975296 
	C400.697662,154.322037 407.046844,142.150192 414.739014,130.889084 
	C421.179779,121.460030 423.216736,110.725372 426.254120,100.257469 
	C427.428009,96.211823 426.863861,91.684174 427.380157,87.410995 
	C427.523651,86.223686 428.447815,84.564247 429.445801,84.141724 
	C434.588440,81.964417 439.742065,79.463699 445.152496,78.394318 
	C448.608704,77.711197 452.517212,79.316406 456.603973,79.950539 
	C457.986450,86.039452 458.987885,92.073479 459.981262,98.559433 
	C454.092468,99.716309 448.052582,99.861954 442.426605,101.462570 
	C440.709839,101.951004 440.122406,106.437698 439.034241,109.100021 
	C437.329712,113.270447 435.561157,117.417000 433.964172,121.628441 
	C432.291260,126.040138 430.886871,130.554581 429.178802,134.951721 
	C427.950226,138.114410 426.415802,141.158295 424.853516,144.927704 
	C417.157654,151.716751 409.685608,157.908600 402.074066,163.923889 
	C396.817230,168.078247 391.367584,171.988586 386.004089,176.007965 
z"/>
<path fill="#46484B" opacity="1.000000" stroke="none" 
	d="
M224.903259,91.781601 
	C210.821518,95.911674 197.055054,100.956383 186.299026,111.346275 
	C180.547546,116.901962 176.135056,123.843842 170.763031,130.148148 
	C168.011841,132.460510 165.615906,134.784882 163.202850,137.125839 
	C161.988403,136.505844 160.538193,135.164978 159.051514,135.123230 
	C155.156708,135.013885 153.197800,133.332169 151.694824,129.725937 
	C151.080353,128.251633 147.903076,127.578339 145.765823,127.071434 
	C142.906540,126.393303 139.135544,127.384407 139.268112,122.752243 
	C137.271606,121.974983 134.140030,121.665215 133.682434,120.393379 
	C132.645050,117.510071 132.949585,114.150635 132.659805,110.989250 
	C132.475647,108.980087 132.204102,106.978935 131.971756,104.974190 
	C131.426834,104.975189 130.881927,104.976189 130.337006,104.977180 
	C130.780609,103.960678 131.224228,102.944168 131.925125,101.338104 
	C129.234467,100.592979 126.817795,99.923721 122.686722,98.779701 
	C125.328476,96.998848 127.142563,95.775940 129.981476,93.862175 
	C126.286575,92.323181 123.740204,91.262566 121.558891,90.354012 
	C121.757103,87.510399 121.925049,85.100914 122.046951,83.352066 
	C124.341652,79.905006 125.779716,75.260040 128.808075,73.697784 
	C135.735489,70.124130 139.982101,62.491333 148.176407,61.177429 
	C155.359100,60.025738 162.830414,57.404476 169.725815,58.434467 
	C182.731079,60.377110 196.176590,56.401508 208.797394,61.754589 
	C210.070877,62.294743 211.428207,62.637257 214.221680,63.557316 
	C211.126160,65.434479 209.298492,66.542809 207.010757,67.930122 
	C210.815048,73.008224 217.050262,69.725243 221.054001,72.739212 
	C218.217636,77.880829 218.490601,78.735939 224.697998,79.956039 
	C229.740143,80.947098 227.369202,83.861465 226.674438,86.337746 
	C226.183304,88.088211 225.416977,89.761467 224.903259,91.781601 
z"/>
<path fill="#424448" opacity="1.000000" stroke="none" 
	d="
M217.251053,153.032928 
	C218.938354,143.568161 225.618484,138.097855 233.825989,134.865509 
	C244.827896,130.532639 255.879715,130.237457 265.910706,138.668365 
	C264.807129,139.696335 262.936401,140.110352 262.391327,141.192261 
	C259.610962,146.711029 254.141785,145.694565 249.569763,147.077286 
	C244.232651,148.691345 238.135513,149.834366 234.168213,153.264023 
	C231.206192,155.824631 228.846680,156.685806 225.363251,157.117188 
	C221.571762,157.586761 219.750443,155.283890 217.251053,153.032928 
z"/>
<path fill="#1B1B1C" opacity="1.000000" stroke="none" 
	d="
M267.795959,301.675720 
	C272.385529,297.053345 277.039825,292.881073 281.927399,288.499664 
	C285.637512,293.283936 289.169983,297.839111 292.811768,302.711090 
	C286.016998,308.495789 278.006805,305.254639 270.487518,305.680908 
	C269.681641,305.726562 268.739532,303.368713 267.795959,301.675720 
z"/>
<path fill="#1B1D21" opacity="1.000000" stroke="none" 
	d="
M46.006393,232.004272 
	C46.004311,231.252625 46.002228,230.500992 45.998817,229.373444 
	C45.998932,227.610077 46.000370,226.222610 46.003048,224.418930 
	C49.373035,222.547287 51.720680,224.253662 53.751678,226.623917 
	C56.447784,229.770416 58.785072,233.268219 61.737862,236.140869 
	C66.411591,240.687759 71.451775,244.859894 76.368942,249.153885 
	C79.095238,251.534668 82.063683,253.663498 84.617485,256.212036 
	C94.739182,266.312714 106.521454,274.224396 118.627602,281.586975 
	C123.442886,284.515472 129.202988,285.881348 134.508743,288.018768 
	C135.838440,288.554443 137.025635,289.451080 138.362808,289.959778 
	C142.520325,291.541290 146.701111,293.067413 150.915100,294.489868 
	C151.775665,294.780365 153.248672,294.109619 153.713470,294.587677 
	C158.433395,299.442505 163.671097,297.670074 169.319504,296.015656 
	C173.598740,299.720245 177.493484,303.428040 181.181870,307.592285 
	C177.797821,309.857971 175.016953,310.094635 171.216614,308.523865 
	C165.775650,306.275024 159.544312,305.738800 153.803238,304.563477 
	C145.558365,302.875580 137.779526,300.748505 130.435211,296.898041 
	C124.914101,294.003418 119.852722,290.131226 114.161240,287.683472 
	C102.794968,282.795135 94.146507,274.610748 85.527161,266.169525 
	C82.038376,262.752869 77.863152,260.037140 74.000305,257.002441 
	C73.528641,256.687347 73.056984,256.372253 72.248123,255.673096 
	C70.617844,253.698685 69.411102,252.027649 68.015305,250.533188 
	C64.023087,246.258728 59.651020,242.298035 56.014999,237.745392 
	C53.300434,234.346512 50.765182,231.466202 46.006393,232.004272 
z"/>
<path fill="#1B1B1C" opacity="1.000000" stroke="none" 
	d="
M74.007225,257.366577 
	C77.863152,260.037140 82.038376,262.752869 85.527161,266.169525 
	C94.146507,274.610748 102.794968,282.795135 114.161240,287.683472 
	C119.852722,290.131226 124.914101,294.003418 130.435211,296.898041 
	C137.779526,300.748505 145.558365,302.875580 153.803238,304.563477 
	C159.544312,305.738800 165.775650,306.275024 171.216614,308.523865 
	C175.016953,310.094635 177.797821,309.857971 181.373657,307.910858 
	C184.725571,309.241852 187.679337,310.710724 190.864136,312.434265 
	C190.469421,317.603821 185.629868,320.061676 179.921997,318.470764 
	C170.662094,315.889832 161.314285,313.599548 152.138382,310.752167 
	C147.358505,309.268951 142.866882,306.856903 138.244751,304.865173 
	C137.642059,304.605438 137.049408,304.160797 136.431763,304.121460 
	C125.775093,303.443298 118.341003,296.606232 110.549538,290.531158 
	C102.351761,284.139313 94.073303,277.821716 86.247612,270.993164 
	C81.742470,267.062073 78.064468,262.183014 74.007225,257.366577 
z"/>
<path fill="#1B1B1C" opacity="1.000000" stroke="none" 
	d="
M46.005020,232.378754 
	C50.765182,231.466202 53.300434,234.346512 56.014999,237.745392 
	C59.651020,242.298035 64.023087,246.258728 68.015305,250.533188 
	C69.411102,252.027649 70.617844,253.698685 71.954285,255.644226 
	C62.844536,253.005203 57.887207,245.327362 52.144413,238.452682 
	C50.842506,236.894180 48.588032,236.131393 46.389946,235.001480 
	C46.006466,234.251480 46.005054,233.502365 46.005020,232.378754 
z"/>
<path fill="#222324" opacity="1.000000" stroke="none" 
	d="
M385.800049,176.267441 
	C391.367584,171.988586 396.817230,168.078247 402.074066,163.923889 
	C409.685608,157.908600 417.157654,151.716751 424.846436,145.302979 
	C431.471344,140.107025 437.938965,135.208298 444.704224,130.157013 
	C438.722290,141.369400 437.437256,155.046692 427.350433,164.823547 
	C422.194702,169.820831 419.464111,177.255768 415.316833,183.371582 
	C407.357758,195.108459 397.590302,205.313431 386.830048,214.434525 
	C381.465942,218.981461 375.040497,222.278534 369.083282,226.122604 
	C365.667786,228.326538 362.417389,230.905258 358.757416,232.584641 
	C352.670441,235.377640 346.272980,237.486267 340.095673,240.094772 
	C338.244354,240.876526 336.690399,242.362503 334.366333,243.962143 
	C333.288208,242.658752 332.082489,241.201126 330.489929,239.572632 
	C330.044281,232.577423 329.985535,225.753067 330.024384,218.470612 
	C333.265503,216.311401 336.697754,214.988251 339.503510,212.844986 
	C352.939026,202.581818 366.213806,192.107986 379.521698,181.678391 
	C381.609741,180.041946 383.574341,178.248016 385.800049,176.267441 
z"/>
<path fill="#292B30" opacity="1.000000" stroke="none" 
	d="
M273.358063,227.841324 
	C274.514252,241.987610 270.336090,254.593063 261.851624,265.734497 
	C257.051361,272.037994 250.600220,276.114960 242.462479,276.654388 
	C228.977570,277.548248 219.464951,270.802216 216.900192,257.477814 
	C215.740891,251.455078 216.706482,245.023300 217.336761,238.388977 
	C225.025726,237.390274 232.122025,237.046997 239.137054,236.101013 
	C247.777359,234.935883 256.373962,233.393768 264.938873,231.751068 
	C267.974426,231.168869 271.652649,231.485062 273.358063,227.841324 
z"/>
<path fill="#303337" opacity="1.000000" stroke="none" 
	d="
M273.545654,227.441956 
	C271.652649,231.485062 267.974426,231.168869 264.938873,231.751068 
	C256.373962,233.393768 247.777359,234.935883 239.137054,236.101013 
	C232.122025,237.046997 225.025726,237.390274 217.502380,238.001373 
	C219.000290,226.508347 226.678055,219.722183 236.594055,215.267853 
	C248.281723,210.017670 260.752899,208.615631 273.733276,209.049133 
	C273.733276,215.211868 273.733276,221.127228 273.545654,227.441956 
z"/>
</svg>